<svg width="161" height="160" viewBox="0 0 161 160" fill="none" xmlns="http://www.w3.org/2000/svg">
<g clip-path="url(#clip0_195_1553)">
<path d="M135.843 27.5H25.1558C23.1549 27.5022 21.2366 28.2931 19.8218 29.6992C18.407 31.1052 17.6111 33.0116 17.6089 35V125C17.6111 126.988 18.4069 128.895 19.8217 130.301C21.2366 131.707 23.1549 132.498 25.1558 132.5H135.843C137.844 132.498 139.762 131.707 141.177 130.301C142.592 128.895 143.388 126.988 143.39 125V35C143.388 33.0116 142.592 31.1052 141.177 29.6992C139.762 28.2931 137.844 27.5022 135.843 27.5ZM25.1558 32.5H135.843C136.51 32.5007 137.15 32.7643 137.621 33.233C138.093 33.7017 138.358 34.3372 138.359 35V108.965L116.023 86.7676C114.607 85.3632 112.688 84.5744 110.687 84.5744C108.687 84.5744 106.767 85.3632 105.351 86.7676L92.3412 99.6967C91.8691 100.165 91.2293 100.428 90.5623 100.428C89.8953 100.428 89.2556 100.165 88.7834 99.6967L60.6798 71.7676C59.2634 70.3632 57.3443 69.5744 55.3436 69.5744C53.3428 69.5744 51.4237 70.3632 50.0074 71.7676L22.6401 98.9646V35C22.6408 34.3372 22.9061 33.7017 23.3777 33.233C23.8493 32.7643 24.4888 32.5007 25.1558 32.5ZM135.843 127.5H25.1558C24.4888 127.499 23.8493 127.235 23.3777 126.767C22.9061 126.298 22.6408 125.663 22.6401 125V106.035L53.5646 75.3033C54.0368 74.8352 54.6766 74.5723 55.3436 74.5723C56.0106 74.5723 56.6503 74.8352 57.1225 75.3033L85.2261 103.232C86.6423 104.637 88.5615 105.426 90.5623 105.426C92.5632 105.426 94.4823 104.637 95.8985 103.232L108.908 90.3033C109.142 90.0711 109.419 89.8869 109.725 89.7613C110.03 89.6356 110.357 89.5709 110.687 89.5709C111.018 89.5709 111.345 89.6356 111.65 89.7613C111.955 89.8869 112.233 90.0711 112.466 90.3033L138.359 116.035V125C138.358 125.663 138.093 126.298 137.621 126.767C137.15 127.235 136.51 127.499 135.843 127.5ZM94.551 66.0355C93.966 65.454 93.5344 64.7381 93.2943 63.9512C93.0542 63.1643 93.0131 62.3308 93.1746 61.5243C93.336 60.7179 93.6952 59.9635 94.2201 59.3279C94.745 58.6923 95.4196 58.1952 96.184 57.8805C96.9484 57.5659 97.7791 57.4435 98.6026 57.5241C99.426 57.6047 100.217 57.8859 100.905 58.3427C101.593 58.7995 102.157 59.4179 102.547 60.143C102.937 60.8682 103.141 61.6777 103.141 62.5V62.5013C103.14 63.4901 102.845 64.4567 102.292 65.2787C101.739 66.1008 100.953 66.7414 100.034 67.1197C99.1144 67.498 98.1029 67.5969 97.127 67.4039C96.1511 67.2109 95.2546 66.7347 94.551 66.0355Z" fill="#979797"/>
<path d="M33.76 146.6H37.568V148.28H33.76V146.6ZM36.912 143.608H39.04V151.16H36.912V143.608ZM29.248 151.72H39.04V155.72H31.376V157.56H29.264V154.2H36.928V153.368H29.248V151.72ZM29.264 156.616H39.456V158.264H29.264V156.616ZM27.264 144.216H29.376V145.912H32.192V144.216H34.272V150.76H27.264V144.216ZM29.376 147.528V149.096H32.192V147.528H29.376ZM41.7588 153.224H42.8148C44.6068 153.224 46.1908 153.176 48.0308 152.856L48.2068 154.568C46.3028 154.92 44.6708 154.968 42.8148 154.968H41.7588V153.224ZM41.7428 145.064H46.9748V150.728H43.8228V153.896H41.7588V149.064H44.9268V146.744H41.7428V145.064ZM52.0628 143.608H54.0788V158.424H52.0628V143.608ZM47.5828 148.648H49.8868V150.392H47.5828V148.648ZM49.0548 143.88H51.0228V157.72H49.0548V143.88ZM63.1868 144.744H64.9148V146.904C64.9148 150.568 63.6348 154.008 60.8348 155.384L59.5548 153.672C62.0508 152.504 63.1868 149.656 63.1868 146.904V144.744ZM63.6188 144.744H65.3148V146.904C65.3148 149.56 66.3708 152.264 68.7388 153.416L67.4588 155.112C64.7868 153.752 63.6188 150.456 63.6188 146.904V144.744ZM69.3308 143.608H71.4748V158.424H69.3308V143.608ZM70.9948 149.304H73.6188V151.08H70.9948V149.304ZM78.1775 145.256H79.9375V146.504C79.9375 149.304 78.5775 151.832 75.7295 152.76L74.6415 151.096C77.1055 150.296 78.1775 148.376 78.1775 146.504V145.256ZM78.6095 145.256H80.3535V146.504C80.3535 148.264 81.4095 150.072 83.8255 150.84L82.7375 152.488C79.9535 151.608 78.6095 149.192 78.6095 146.504V145.256ZM75.2015 144.664H83.2655V146.344H75.2015V144.664ZM84.7535 143.624H86.8975V154.312H84.7535V143.624ZM77.0255 156.472H87.2655V158.168H77.0255V156.472ZM77.0255 153.352H79.1535V157.32H77.0255V153.352ZM100.566 146.872H104.278V148.584H100.566V146.872ZM97.1735 144.216C99.3975 144.216 101.078 145.704 101.078 147.752C101.078 149.816 99.3975 151.288 97.1735 151.288C94.9335 151.288 93.2535 149.816 93.2535 147.752C93.2535 145.704 94.9335 144.216 97.1735 144.216ZM97.1735 145.992C96.0855 145.992 95.2855 146.648 95.2855 147.752C95.2855 148.856 96.0855 149.528 97.1735 149.528C98.2615 149.528 99.0455 148.856 99.0455 147.752C99.0455 146.648 98.2615 145.992 97.1735 145.992ZM103.35 143.608H105.478V151.576H103.35V143.608ZM95.6375 152.216H97.7495V153.624H103.366V152.216H105.478V158.264H95.6375V152.216ZM97.7495 155.256V156.568H103.366V155.256H97.7495ZM107.812 155.064H121.22V156.792H107.812V155.064ZM113.428 152.264H115.556V155.768H113.428V152.264ZM109.316 144.568H119.716V149.496H111.46V151.992H109.348V147.832H117.604V146.248H109.316V144.568ZM109.348 151.144H120.052V152.856H109.348V151.144ZM124.083 150.44H134.499V152.136H124.083V150.44ZM122.531 154.904H135.939V156.648H122.531V154.904ZM124.083 144.824H134.387V146.552H126.195V151.144H124.083V144.824Z" fill="#979797"/>
</g>
<defs>
<clipPath id="clip0_195_1553">
<rect width="161" height="160" fill="white"/>
</clipPath>
</defs>
</svg>
