<svg width="24" height="24" viewBox="0 0 24 24" fill="none" xmlns="http://www.w3.org/2000/svg">
<path d="M10.5495 2.51649C11.3874 1.82784 12.6126 1.82784 13.4505 2.51649L20.2005 8.0641C20.7074 8.48076 21 9.09417 21 9.7405V19.2944C21 20.2364 20.2165 21 19.25 21H15.75C14.7835 21 14 20.2364 14 19.2944V13.934C14 13.7995 13.8881 13.6904 13.75 13.6904H10.25C10.1119 13.6904 10 13.7995 10 13.934V19.2944C10 20.2364 9.2165 21 8.25 21H4.75C3.7835 21 3 20.2364 3 19.2944V9.7405C3 9.09417 3.29255 8.48076 3.79952 8.0641L10.5495 2.51649ZM12.4835 3.63409C12.2042 3.40453 11.7958 3.40453 11.5165 3.63409L4.76651 9.1817C4.59752 9.32059 4.5 9.52506 4.5 9.7405V19.2944C4.5 19.429 4.61193 19.5381 4.75 19.5381H8.25C8.38807 19.5381 8.5 19.429 8.5 19.2944V13.934C8.5 12.9921 9.2835 12.2285 10.25 12.2285H13.75C14.7165 12.2285 15.5 12.9921 15.5 13.934V19.2944C15.5 19.429 15.6119 19.5381 15.75 19.5381H19.25C19.3881 19.5381 19.5 19.429 19.5 19.2944V9.7405C19.5 9.52506 19.4025 9.32059 19.2335 9.1817L12.4835 3.63409Z" fill="#27292C"/>
</svg>
