<svg width="707" height="660" viewBox="0 0 707 660" fill="none" xmlns="http://www.w3.org/2000/svg">
<path d="M235.714 484C235.714 484 260.83 420.882 280.467 404.976C287.236 399.476 387.012 394.526 395.142 404.646C403.273 414.766 401.93 429.704 381.603 434.764C370.157 437.724 358.523 439.41 346.837 439.802C346.837 439.802 389.734 444.202 401.028 439.802C412.322 435.402 472.364 396.682 477.331 401.742C482.298 406.802 491.966 422.642 474.344 436.392C456.722 450.142 422.238 482.108 410.961 486.046C399.685 489.984 314.279 527.538 314.279 527.538L235.714 484Z" fill="#FFC9B0"/>
<path d="M314.262 529.716C314.02 529.711 313.78 529.651 313.555 529.54L235.078 485.98C234.859 485.859 234.663 485.685 234.5 485.468C234.338 485.25 234.212 484.994 234.131 484.714C234.05 484.435 234.015 484.138 234.029 483.841C234.043 483.544 234.105 483.254 234.212 482.988C235.237 480.392 259.77 419.188 279.583 403.106C284.179 399.388 317.443 397.232 337.345 396.726C357.247 396.22 391.148 396.418 396.486 403.062C400.905 408.562 402.601 415.118 401.152 421.08C399.844 426.448 395.461 433.554 382.045 436.898C378.068 437.888 374.304 438.68 370.822 439.318C382.54 439.824 395.302 439.802 400.569 437.69C404.245 436.238 413.525 430.892 424.253 424.688C459.603 404.294 474.963 396.374 478.533 400.004C482.386 403.92 486.717 411.378 486.31 419.496C485.957 426.558 482.28 432.85 475.369 438.24C469.802 442.64 462.502 448.778 454.778 455.356C437.439 470.096 419.428 485.364 411.527 488.136C400.427 492.008 315.799 529.21 314.951 529.606C314.727 529.687 314.495 529.724 314.262 529.716ZM238.118 482.9L314.35 525.162C322.923 521.378 399.667 487.762 410.484 483.89C417.89 481.316 436.378 465.586 452.692 451.726C460.452 445.126 467.769 438.9 473.407 434.5C479.046 430.1 482.404 424.776 482.687 419.232C483.023 412.764 479.399 406.67 476.218 403.414C472.418 401.72 441.981 419.254 425.65 428.692C414.815 434.94 405.447 440.33 401.559 441.892C390.07 446.468 348.534 442.178 346.766 441.892C346.322 441.848 345.908 441.596 345.607 441.189C345.305 440.781 345.139 440.246 345.14 439.692C345.14 439.108 345.326 438.549 345.658 438.136C345.989 437.724 346.439 437.492 346.907 437.492C358.48 437.097 370.003 435.426 381.338 432.498C390.476 430.298 396.291 425.678 397.758 419.716C398.801 415.316 397.423 410.388 393.958 406.076C387.012 397.43 288.403 401.126 281.492 406.692C264.383 420.596 242.625 471.988 238.118 482.9Z" fill="#093F68"/>
<path d="M329.71 537.46L334.694 522.962L232.639 472.538L208.194 537.46H329.71Z" fill="#B6C6B2"/>
<path d="M329.71 539.66H208.194C207.898 539.659 207.608 539.566 207.348 539.39C207.089 539.213 206.869 538.958 206.71 538.648C206.538 538.325 206.438 537.952 206.419 537.566C206.401 537.179 206.464 536.794 206.603 536.448L231.048 471.504C231.241 471.001 231.579 470.607 231.996 470.403C232.413 470.199 232.876 470.199 233.293 470.404L335.348 520.828C335.567 520.939 335.766 521.103 335.933 521.31C336.1 521.518 336.231 521.766 336.32 522.038C336.413 522.309 336.46 522.601 336.46 522.896C336.46 523.191 336.413 523.483 336.32 523.754L331.336 538.252C331.209 538.662 330.986 539.015 330.696 539.266C330.406 539.517 330.063 539.654 329.71 539.66ZM210.987 535.26H328.543L332.361 524.26L233.54 475.442L210.987 535.26Z" fill="#093F68"/>
<path d="M162.027 293.722C161.558 293.722 161.109 293.49 160.777 293.078C160.446 292.665 160.26 292.105 160.26 291.522V279.4C160.26 278.816 160.446 278.257 160.777 277.844C161.109 277.432 161.558 277.2 162.027 277.2C162.496 277.2 162.946 277.432 163.277 277.844C163.609 278.257 163.795 278.816 163.795 279.4V291.522C163.795 292.105 163.609 292.665 163.277 293.078C162.946 293.49 162.496 293.722 162.027 293.722Z" fill="#ED6C30"/>
<path d="M162.027 317.944C161.558 317.944 161.109 317.712 160.777 317.3C160.446 316.887 160.26 316.327 160.26 315.744V303.6C160.26 303.016 160.446 302.457 160.777 302.044C161.109 301.632 161.558 301.4 162.027 301.4C162.496 301.4 162.946 301.632 163.277 302.044C163.609 302.457 163.795 303.016 163.795 303.6V315.722C163.797 316.013 163.753 316.301 163.665 316.571C163.578 316.84 163.448 317.085 163.283 317.292C163.119 317.498 162.923 317.662 162.708 317.774C162.492 317.886 162.261 317.944 162.027 317.944Z" fill="#ED6C30"/>
<path d="M176.627 299.772H166.888C166.419 299.772 165.969 299.54 165.638 299.128C165.306 298.715 165.12 298.156 165.12 297.572C165.12 296.989 165.306 296.429 165.638 296.016C165.969 295.604 166.419 295.372 166.888 295.372H176.627C177.095 295.372 177.545 295.604 177.876 296.016C178.208 296.429 178.394 296.989 178.394 297.572C178.394 298.156 178.208 298.715 177.876 299.128C177.545 299.54 177.095 299.772 176.627 299.772Z" fill="#ED6C30"/>
<path d="M157.166 299.772H147.445C146.976 299.772 146.527 299.54 146.195 299.128C145.864 298.715 145.678 298.156 145.678 297.572C145.678 296.989 145.864 296.429 146.195 296.016C146.527 295.604 146.976 295.372 147.445 295.372H157.166C157.635 295.372 158.085 295.604 158.416 296.016C158.748 296.429 158.934 296.989 158.934 297.572C158.934 298.156 158.748 298.715 158.416 299.128C158.085 299.54 157.635 299.772 157.166 299.772Z" fill="#ED6C30"/>
<path d="M513.158 321.2C512.689 321.2 512.24 320.968 511.908 320.556C511.577 320.143 511.391 319.583 511.391 319V306.878C511.391 306.295 511.577 305.735 511.908 305.322C512.24 304.91 512.689 304.678 513.158 304.678C513.627 304.678 514.076 304.91 514.408 305.322C514.739 305.735 514.926 306.295 514.926 306.878V319C514.926 319.583 514.739 320.143 514.408 320.556C514.076 320.968 513.627 321.2 513.158 321.2Z" fill="#ED6C30"/>
<path d="M513.158 345.4C512.689 345.4 512.24 345.168 511.908 344.756C511.577 344.343 511.391 343.783 511.391 343.2V331.078C511.391 330.494 511.577 329.935 511.908 329.522C512.24 329.11 512.689 328.878 513.158 328.878C513.627 328.878 514.076 329.11 514.408 329.522C514.739 329.935 514.926 330.494 514.926 331.078V343.2C514.926 343.783 514.739 344.343 514.408 344.756C514.076 345.168 513.627 345.4 513.158 345.4Z" fill="#ED6C30"/>
<path d="M527.741 327.14H518.019C517.551 327.14 517.101 326.908 516.77 326.496C516.438 326.083 516.252 325.523 516.252 324.94C516.252 324.357 516.438 323.797 516.77 323.384C517.101 322.972 517.551 322.74 518.019 322.74H527.741C528.209 322.74 528.659 322.972 528.991 323.384C529.322 323.797 529.508 324.357 529.508 324.94C529.508 325.523 529.322 326.083 528.991 326.496C528.659 326.908 528.209 327.14 527.741 327.14Z" fill="#ED6C30"/>
<path d="M508.298 327.14H498.559C498.091 327.14 497.641 326.908 497.31 326.496C496.978 326.083 496.792 325.523 496.792 324.94C496.792 324.357 496.978 323.797 497.31 323.384C497.641 322.972 498.091 322.74 498.559 322.74H508.298C508.767 322.74 509.217 322.972 509.548 323.384C509.88 323.797 510.066 324.357 510.066 324.94C510.066 325.523 509.88 326.083 509.548 326.496C509.217 326.908 508.767 327.14 508.298 327.14Z" fill="#ED6C30"/>
<path d="M539.353 252.868C538.885 252.868 538.435 252.636 538.104 252.224C537.772 251.811 537.586 251.252 537.586 250.668V221.76C537.586 221.177 537.772 220.617 538.104 220.204C538.435 219.792 538.885 219.56 539.353 219.56C539.822 219.56 540.272 219.792 540.603 220.204C540.935 220.617 541.121 221.177 541.121 221.76V250.668C541.121 251.252 540.935 251.811 540.603 252.224C540.272 252.636 539.822 252.868 539.353 252.868Z" fill="#ED6C30"/>
<path d="M550.965 238.414H527.74C527.271 238.414 526.822 238.182 526.49 237.77C526.159 237.357 525.973 236.797 525.973 236.214C525.973 235.63 526.159 235.071 526.49 234.658C526.822 234.246 527.271 234.014 527.74 234.014H550.965C551.434 234.014 551.883 234.246 552.215 234.658C552.546 235.071 552.733 235.63 552.733 236.214C552.733 236.797 552.546 237.357 552.215 237.77C551.883 238.182 551.434 238.414 550.965 238.414Z" fill="#ED6C30"/>
<path d="M197.854 203.566C197.386 203.566 196.936 203.334 196.605 202.922C196.273 202.509 196.087 201.949 196.087 201.366V178.772C196.087 178.189 196.273 177.629 196.605 177.216C196.936 176.804 197.386 176.572 197.854 176.572C198.323 176.572 198.773 176.804 199.104 177.216C199.436 177.629 199.622 178.189 199.622 178.772V201.366C199.622 201.949 199.436 202.509 199.104 202.922C198.773 203.334 198.323 203.566 197.854 203.566Z" fill="#ED6C30"/>
<path d="M206.922 192.28H188.787C188.318 192.28 187.869 192.048 187.537 191.636C187.206 191.223 187.02 190.664 187.02 190.08C187.02 189.497 187.206 188.937 187.537 188.524C187.869 188.112 188.318 187.88 188.787 187.88H206.922C207.39 187.88 207.84 188.112 208.171 188.524C208.503 188.937 208.689 189.497 208.689 190.08C208.689 190.664 208.503 191.223 208.171 191.636C207.84 192.048 207.39 192.28 206.922 192.28Z" fill="#ED6C30"/>
<path d="M206.922 378.4C206.453 378.4 206.003 378.168 205.672 377.756C205.341 377.343 205.154 376.784 205.154 376.2V353.518C205.154 352.935 205.341 352.375 205.672 351.962C206.003 351.55 206.453 351.318 206.922 351.318C207.391 351.318 207.84 351.55 208.172 351.962C208.503 352.375 208.689 352.935 208.689 353.518V376.2C208.689 376.784 208.503 377.343 208.172 377.756C207.84 378.168 207.391 378.4 206.922 378.4Z" fill="#ED6C30"/>
<path d="M216.007 367.004H197.854C197.386 367.004 196.936 366.772 196.605 366.36C196.273 365.947 196.087 365.387 196.087 364.804C196.087 364.221 196.273 363.661 196.605 363.248C196.936 362.836 197.386 362.604 197.854 362.604H216.007C216.475 362.604 216.925 362.836 217.256 363.248C217.588 363.661 217.774 364.221 217.774 364.804C217.774 365.387 217.588 365.947 217.256 366.36C216.925 366.772 216.475 367.004 216.007 367.004Z" fill="#ED6C30"/>
<path d="M394.806 198C393.165 198 391.592 197.189 390.432 195.745C389.272 194.301 388.62 192.342 388.62 190.3V155.562C388.62 153.52 387.968 151.561 386.808 150.117C385.648 148.673 384.074 147.862 382.434 147.862H324.566C322.925 147.862 321.351 148.673 320.191 150.117C319.031 151.561 318.379 153.52 318.379 155.562V190.388C318.379 192.43 317.728 194.389 316.567 195.833C315.407 197.277 313.834 198.088 312.193 198.088C310.552 198.088 308.979 197.277 307.819 195.833C306.659 194.389 306.007 192.43 306.007 190.388V155.562C306.012 149.437 307.968 143.565 311.448 139.234C314.927 134.903 319.645 132.468 324.566 132.462H382.434C387.354 132.468 392.072 134.903 395.551 139.234C399.031 143.565 400.988 149.437 400.992 155.562V190.388C400.974 192.415 400.314 194.351 399.156 195.776C397.997 197.201 396.435 198 394.806 198Z" fill="white"/>
<path d="M394.807 200.2C392.699 200.194 390.679 199.149 389.188 197.294C387.697 195.439 386.858 192.924 386.853 190.3V155.562C386.853 154.103 386.388 152.704 385.559 151.673C384.73 150.641 383.606 150.062 382.434 150.062H324.566C323.395 150.062 322.271 150.641 321.442 151.673C320.613 152.704 320.148 154.103 320.148 155.562V190.388C320.148 193.014 319.31 195.532 317.818 197.388C316.327 199.245 314.303 200.288 312.194 200.288C310.085 200.288 308.061 199.245 306.57 197.388C305.078 195.532 304.24 193.014 304.24 190.388V155.562C304.245 148.854 306.388 142.422 310.199 137.679C314.01 132.935 319.177 130.268 324.566 130.262H382.434C387.824 130.268 392.991 132.935 396.802 137.679C400.613 142.422 402.756 148.854 402.761 155.562V190.388C402.737 192.997 401.89 195.489 400.401 197.325C398.913 199.162 396.903 200.194 394.807 200.2ZM324.566 145.662H382.434C384.542 145.668 386.563 146.713 388.053 148.568C389.544 150.423 390.384 152.938 390.388 155.562V190.388C390.388 191.847 390.854 193.246 391.682 194.277C392.511 195.308 393.635 195.888 394.807 195.888C395.979 195.888 397.103 195.308 397.931 194.277C398.76 193.246 399.226 191.847 399.226 190.388V155.562C399.221 150.021 397.45 144.708 394.302 140.79C391.155 136.872 386.886 134.668 382.434 134.662H324.566C320.115 134.668 315.846 136.872 312.698 140.79C309.55 144.708 307.78 150.021 307.775 155.562V190.388C307.775 191.847 308.241 193.246 309.069 194.277C309.898 195.308 311.022 195.888 312.194 195.888C313.366 195.888 314.49 195.308 315.319 194.277C316.147 193.246 316.613 191.847 316.613 190.388V155.562C316.617 152.938 317.457 150.423 318.947 148.568C320.438 146.713 322.458 145.668 324.566 145.662Z" fill="#093F68"/>
<path d="M451.402 179.212H255.616C249.368 179.212 244.304 185.516 244.304 193.292V349.514C244.304 357.29 249.368 363.594 255.616 363.594H451.402C457.649 363.594 462.714 357.29 462.714 349.514V193.292C462.714 185.516 457.649 179.212 451.402 179.212Z" fill="#B6C6B2"/>
<path d="M451.402 365.794H255.598C252.134 365.782 248.814 364.063 246.366 361.011C243.918 357.96 242.541 353.826 242.536 349.514V193.314C242.541 189.004 243.918 184.872 246.367 181.824C248.816 178.776 252.135 177.062 255.598 177.056H451.402C454.864 177.062 458.184 178.776 460.633 181.824C463.081 184.872 464.459 189.004 464.463 193.314V349.514C464.459 353.826 463.082 357.96 460.634 361.011C458.186 364.063 454.866 365.782 451.402 365.794ZM255.598 181.412C253.073 181.418 250.652 182.669 248.867 184.891C247.081 187.114 246.076 190.127 246.071 193.27V349.47C246.071 352.617 247.074 355.635 248.86 357.863C250.647 360.09 253.07 361.344 255.598 361.35H451.402C453.93 361.344 456.353 360.09 458.139 357.863C459.925 355.635 460.928 352.617 460.928 349.47V193.27C460.924 190.127 459.919 187.114 458.133 184.891C456.347 182.669 453.927 181.418 451.402 181.412H255.598Z" fill="#093F68"/>
<path d="M435.883 242H271.117C263.538 241.994 256.271 238.244 250.912 231.574C245.553 224.904 242.541 215.859 242.536 206.426V190.388C242.536 189.805 242.722 189.245 243.054 188.832C243.385 188.42 243.835 188.188 244.304 188.188C244.772 188.188 245.222 188.42 245.553 188.832C245.885 189.245 246.071 189.805 246.071 190.388V206.338C246.064 210.438 246.707 214.5 247.962 218.291C249.217 222.082 251.061 225.528 253.387 228.432C255.713 231.335 258.476 233.64 261.519 235.213C264.561 236.786 267.822 237.597 271.117 237.6H435.883C442.524 237.594 448.892 234.308 453.588 228.463C458.284 222.618 460.924 214.692 460.928 206.426V190.388C460.928 189.805 461.115 189.245 461.446 188.832C461.778 188.42 462.227 188.188 462.696 188.188C463.165 188.188 463.614 188.42 463.946 188.832C464.277 189.245 464.463 189.805 464.463 190.388V206.338C464.47 211.016 463.736 215.65 462.303 219.975C460.871 224.3 458.767 228.231 456.112 231.543C453.458 234.855 450.305 237.483 446.834 239.278C443.363 241.072 439.642 241.997 435.883 242Z" fill="#093F68"/>
<path d="M354.826 219.274H352.174C349.061 219.274 346.536 222.416 346.536 226.292V248.182C346.536 252.058 349.061 255.2 352.174 255.2H354.826C357.94 255.2 360.464 252.058 360.464 248.182V226.292C360.464 222.416 357.94 219.274 354.826 219.274Z" fill="#FFBC0E"/>
<path d="M354.826 257.4H352.174C350.212 257.394 348.331 256.421 346.943 254.694C345.555 252.966 344.773 250.625 344.769 248.182V226.314C344.769 223.867 345.548 221.52 346.937 219.788C348.325 218.056 350.209 217.08 352.174 217.074H354.826C356.791 217.08 358.675 218.056 360.063 219.788C361.452 221.52 362.231 223.867 362.231 226.314V248.182C362.227 250.625 361.445 252.966 360.057 254.694C358.669 256.421 356.788 257.394 354.826 257.4ZM352.174 221.474C351.146 221.48 350.162 221.992 349.436 222.899C348.711 223.806 348.304 225.034 348.304 226.314V248.182C348.304 249.46 348.711 250.685 349.437 251.589C350.163 252.492 351.148 253 352.174 253H354.826C355.852 253 356.837 252.492 357.563 251.589C358.289 250.685 358.696 249.46 358.696 248.182V226.314C358.696 225.034 358.289 223.806 357.564 222.899C356.838 221.992 355.854 221.48 354.826 221.474H352.174Z" fill="#093F68"/>
</svg>
