<svg width="28" height="28" viewBox="0 0 28 28" fill="none" xmlns="http://www.w3.org/2000/svg">
<path d="M2.51047 24.1601L2.51049 24.1601C4.04323 25.5681 5.83257 26.6501 8.12117 26.6501H19.8788C22.1675 26.6501 23.9568 25.5681 25.4895 24.1601L25.0578 23.6901L25.4895 24.1601C26.3416 23.3773 26.735 22.5289 26.6349 21.6458C26.5398 20.8066 26.0138 20.1036 25.423 19.546C24.4758 18.652 23.0977 17.9014 22.1442 17.3822C21.9202 17.2602 21.7196 17.1509 21.5536 17.0556C16.9297 14.4006 11.0704 14.4006 6.44645 17.0556C6.2804 17.1509 6.07979 17.2602 5.85572 17.3822C4.9023 17.9015 3.52416 18.652 2.57697 19.546C1.98625 20.1036 1.46021 20.8066 1.36508 21.6458C1.26498 22.5289 1.65842 23.3773 2.51047 24.1601Z" stroke="#000000" stroke-width="1.3" stroke-linecap="round" stroke-linejoin="round"/>
<path d="M14 14.2214C17.6502 14.2214 20.65 11.3621 20.65 7.78571C20.65 4.20929 17.6502 1.35 14 1.35C10.3498 1.35 7.35 4.20929 7.35 7.78571C7.35 11.3621 10.3498 14.2214 14 14.2214Z" stroke="#000000" stroke-width="1.3"/>
</svg>
