<svg width="46" height="46" viewBox="0 0 46 46" fill="none" xmlns="http://www.w3.org/2000/svg">
<g clip-path="url(#clip0_195_2502)">
<path d="M31.769 6.6092L37.8395 5.35248L40.9812 0.919922" stroke="#979797" stroke-width="2" stroke-linecap="round"/>
<path d="M33.3633 15.8094L39.4337 14.5527L42.5754 10.1201" stroke="#979797" stroke-width="2" stroke-linecap="round"/>
<path d="M36.4453 21.2915L42.1323 28.7426L46.0002 29.8595" stroke="#979797" stroke-width="2" stroke-linecap="round"/>
<path d="M14.231 6.6092L8.16049 5.35248L5.01884 0.919922" stroke="#979797" stroke-width="2" stroke-linecap="round"/>
<path d="M12.6367 15.8094L6.56626 14.5527L3.4246 10.1201" stroke="#979797" stroke-width="2" stroke-linecap="round"/>
<path d="M9.55469 21.2915L3.86766 28.7426L-0.000212642 29.8595" stroke="#979797" stroke-width="2" stroke-linecap="round"/>
<path fill-rule="evenodd" clip-rule="evenodd" d="M23.0001 46.0001C30.9249 46.0001 38.9435 36.1145 38.9435 23.9201C38.9435 11.7256 30.9249 1.84009 23.0001 1.84009C15.0753 1.84009 7.05664 11.7256 7.05664 23.9201C7.05664 36.1145 15.0753 46.0001 23.0001 46.0001Z" fill="#E43535"/>
<path fill-rule="evenodd" clip-rule="evenodd" d="M23.0001 15.6444C25.0627 15.6444 32.5662 10.4087 32.5662 7.36009C32.5662 4.31148 28.2833 1.84009 23.0001 1.84009C17.717 1.84009 13.4341 4.31148 13.4341 7.36009C13.4341 10.4087 20.9376 15.6444 23.0001 15.6444Z" fill="#595959"/>
<path d="M22.9999 3.68C26.5221 3.68 29.3773 2.8562 29.3773 1.84C29.3773 0.823796 26.5221 0 22.9999 0C19.4778 0 16.6226 0.823796 16.6226 1.84C16.6226 2.8562 19.4778 3.68 22.9999 3.68Z" fill="#979797"/>
<path d="M23.0186 45.08V15.1816" stroke="#595959" stroke-width="2" stroke-linecap="round"/>
<path d="M31.7687 21.16C32.6492 21.16 33.363 20.3362 33.363 19.32C33.363 18.3038 32.6492 17.48 31.7687 17.48C30.8881 17.48 30.1743 18.3038 30.1743 19.32C30.1743 20.3362 30.8881 21.16 31.7687 21.16Z" fill="#D8D8D8"/>
<path d="M30.1744 34.0401C31.055 34.0401 31.7688 33.2163 31.7688 32.2001C31.7688 31.1839 31.055 30.3601 30.1744 30.3601C29.2939 30.3601 28.5801 31.1839 28.5801 32.2001C28.5801 33.2163 29.2939 34.0401 30.1744 34.0401Z" fill="#D8D8D8"/>
<path d="M18.2169 34.0401C19.0974 34.0401 19.8112 33.2163 19.8112 32.2001C19.8112 31.1839 19.0974 30.3601 18.2169 30.3601C17.3364 30.3601 16.6226 31.1839 16.6226 32.2001C16.6226 33.2163 17.3364 34.0401 18.2169 34.0401Z" fill="#D8D8D8"/>
<path d="M12.6368 23.92C13.5174 23.92 14.2312 23.0962 14.2312 22.08C14.2312 21.0638 13.5174 20.24 12.6368 20.24C11.7563 20.24 11.0425 21.0638 11.0425 22.08C11.0425 23.0962 11.7563 23.92 12.6368 23.92Z" fill="#D8D8D8"/>
</g>
<defs>
<clipPath id="clip0_195_2502">
<rect width="46" height="46" fill="white"/>
</clipPath>
</defs>
</svg>
