<svg width="50" height="50" viewBox="0 0 50 50" fill="none" xmlns="http://www.w3.org/2000/svg">
<path d="M24.8438 46.4062C13.9453 46.4062 2.1875 39.5703 2.1875 24.5703C2.1875 9.57031 13.9453 2.73438 24.8438 2.73438C30.8984 2.73438 36.4844 4.72656 40.625 8.35938C45.1172 12.3438 47.5 17.9688 47.5 24.5703C47.5 31.1719 45.1172 36.7578 40.625 40.7422C36.4844 44.375 30.8594 46.4062 24.8438 46.4062Z" fill="url(#paint0_radial_195_2486)"/>
<path d="M43.5508 11.5898C45.6328 14.9492 46.7188 18.9492 46.7188 23.3984C46.7188 30 44.3359 35.5859 39.8438 39.5703C35.7031 43.2031 30.0781 45.2344 24.0625 45.2344C17.0078 45.2344 9.60938 42.3633 5.24219 36.2734C9.44531 43.1719 17.3516 46.4062 24.8438 46.4062C30.8594 46.4062 36.4844 44.375 40.625 40.7422C45.1172 36.7578 47.5 31.1719 47.5 24.5703C47.5 19.5938 46.1445 15.1719 43.5508 11.5898Z" fill="#EB8F00"/>
<path d="M24.8438 46.4062C13.9453 46.4062 2.1875 39.5703 2.1875 24.5703C2.1875 9.57031 13.9453 2.73438 24.8438 2.73438C30.8984 2.73438 36.4844 4.72656 40.625 8.35938C45.1172 12.3438 47.5 17.9688 47.5 24.5703C47.5 31.1719 45.1172 36.7578 40.625 40.7422C36.4844 44.375 30.8594 46.4062 24.8438 46.4062Z" fill="url(#paint1_linear_195_2486)"/>
<path d="M24.8438 46.4062C13.9453 46.4062 2.1875 39.5703 2.1875 24.5703C2.1875 9.57031 13.9453 2.73438 24.8438 2.73438C30.8984 2.73438 36.4844 4.72656 40.625 8.35938C45.1172 12.3438 47.5 17.9688 47.5 24.5703C47.5 31.1719 45.1172 36.7578 40.625 40.7422C36.4844 44.375 30.8594 46.4062 24.8438 46.4062Z" fill="url(#paint2_linear_195_2486)"/>
<path d="M43.5508 11.5898C45.6328 14.9492 46.7188 18.9492 46.7188 23.3984C46.7188 30 44.3359 35.5859 39.8438 39.5703C35.7031 43.2031 30.0781 45.2344 24.0625 45.2344C17.0078 45.2344 9.60938 42.3633 5.24219 36.2734C9.44531 43.1719 17.3516 46.4062 24.8438 46.4062C30.8594 46.4062 36.4844 44.375 40.625 40.7422C45.1172 36.7578 47.5 31.1719 47.5 24.5703C47.5 19.5938 46.1445 15.1719 43.5508 11.5898Z" fill="#EB8F00"/>
<path d="M25 42.8633C22.6484 42.8477 20.7461 40.9453 20.7305 38.5938V33.6719C20.7305 31.3125 22.6406 29.4023 25 29.4023C27.3594 29.4023 29.2695 31.3125 29.2695 33.6719V38.5977C29.2539 40.9492 27.3516 42.8477 25 42.8633Z" fill="#422B0D"/>
<path d="M16.91 16.3359C17.7068 16.3359 18.4881 16.5664 19.16 16.9961C21.3631 18.3906 22.285 21.6836 20.5076 25.0859C19.2811 27.4297 17.4373 28.5117 15.6912 28.5117C14.8943 28.5117 14.1131 28.2813 13.4412 27.8516C11.2381 26.457 10.3162 23.1641 12.0936 19.7617C13.3201 17.418 15.16 16.3359 16.91 16.3359Z" fill="white"/>
<path opacity="0.66" d="M46.4608 28.5156C45.9256 28.125 45.992 27.6914 44.5077 28.2891C43.8944 28.5391 43.1913 29.9453 43.1913 29.9453C43.1913 29.9453 42.1327 27.8281 40.0389 30.6445C36.2342 35.7539 34.5702 35.5195 32.3319 37.8633C30.8905 39.3633 29.6444 40.793 30.1249 43.6328C30.3944 45.2187 31.1483 45.6523 31.1483 45.6523C31.1483 45.6523 31.6092 45.6523 36.1327 43.3086C40.6561 40.9648 44.6053 37.6484 46.7772 32.3359" fill="url(#paint3_linear_195_2486)"/>
<path d="M34.2737 38.8751C35.9729 37.586 37.6135 36.4025 38.3869 35.3829C39.1604 34.3634 39.9924 32.2267 40.4924 30.8282C40.9924 29.4298 42.4455 28.7462 43.2268 29.9415C43.4299 30.2618 43.2698 31.504 43.2268 31.9806C43.6526 31.2736 43.9534 30.4962 44.1174 29.6876C44.508 27.7814 46.5002 27.1642 46.8518 29.7267C46.8518 29.7267 48.3323 29.7853 47.676 34.379C47.3479 36.1681 46.758 37.9025 45.9182 39.5157C43.8127 43.4845 42.1643 45.3243 40.0315 46.7853C36.6955 49.0665 33.5354 48.5236 32.5471 47.2267C30.8596 44.9962 31.3127 41.1212 34.2737 38.8751Z" fill="url(#paint4_radial_195_2486)"/>
<path d="M43.211 29.9414C43.211 30.7031 42.4766 33.3555 42.1992 34.0352C41.2422 36.5547 39.4961 37.7266 39.9844 38.125C40.4727 38.5234 41.4063 37.6758 42.7539 34.4766C43.168 33.3867 43.4102 32.2422 43.4649 31.0781C43.461 30.6836 43.375 30.2969 43.211 29.9414Z" fill="#ED6C30"/>
<path d="M45.7814 28.0117C46.2775 28.2266 47.0157 29.6406 45.9103 33.6016C45.2267 36.5937 42.9532 38.9219 43.5001 39.1836C44.1446 39.6172 45.6173 37.1758 46.6603 33.793C46.9337 32.7695 47.1056 31.7227 47.1642 30.668C47.1798 30.1367 47.0001 28.1562 45.7814 28.0117Z" fill="#ED6C30"/>
<path opacity="0.66" d="M3.33203 28.5156C3.86719 28.125 3.80078 27.6914 5.28516 28.2891C5.89844 28.5391 6.60156 29.9453 6.60156 29.9453C6.60156 29.9453 7.66016 27.8281 9.75391 30.6445C13.5586 35.7539 15.2227 35.5195 17.4609 37.8633C18.8984 39.3633 20.1445 40.793 19.6641 43.6328C19.3984 45.2187 18.6445 45.6523 18.6445 45.6523C18.6445 45.6523 17.8945 45.6523 14.2969 43.8164C13.9883 43.6602 14.0156 43.5 13.6602 43.3125C9.13672 40.9687 5.1875 37.6523 3.01562 32.3398" fill="url(#paint5_linear_195_2486)"/>
<path d="M15.5194 38.8751C13.8201 37.586 12.1795 36.4025 11.4061 35.3829C10.6326 34.3634 9.8006 32.2267 9.2967 30.8282C8.79279 29.4298 7.34357 28.7462 6.58185 29.9415C6.37873 30.2618 6.53888 31.504 6.58185 31.9806C6.15217 31.2736 5.84357 30.4962 5.6756 29.6876C5.28498 27.7814 3.29279 27.1642 2.94123 29.7267C2.94123 29.7267 1.46076 29.7853 2.11701 34.379C2.44513 36.1681 3.03498 37.9025 3.87482 39.5157C5.97638 43.4845 7.62873 45.3243 9.76154 46.7853C13.0936 49.0665 16.2537 48.5236 17.2459 47.2267C18.9217 44.9962 18.4803 41.1212 15.5194 38.8751Z" fill="url(#paint6_radial_195_2486)"/>
<path d="M6.58203 29.9414C6.58203 30.7031 7.31641 33.3555 7.59375 34.0352C8.55078 36.5547 10.293 37.7266 9.80859 38.125C9.32422 38.5234 8.38281 37.6758 7.03516 34.4766C6.62109 33.3867 6.38281 32.2422 6.32812 31.0781C6.32812 30.6836 6.41406 30.2969 6.58203 29.9414Z" fill="#ED6C30"/>
<path d="M4.00773 28.0117C3.51554 28.2266 2.77726 29.6406 3.88273 33.5938C4.56632 36.5859 6.83976 38.9141 6.29288 39.1758C5.64835 39.6094 4.17569 37.168 3.13273 33.7852C2.85929 32.7617 2.68741 31.7148 2.62882 30.6602C2.61319 30.1367 2.79288 28.1562 4.00773 28.0117Z" fill="#ED6C30"/>
<path d="M20.5586 25.1132C20.2695 26.1327 19.7344 27.0624 18.9961 27.8241C18.1992 28.6483 17.1484 29.1796 16.0156 29.3358C14.8008 29.4882 13.5703 29.1718 12.5781 28.4569C11.6016 27.746 10.8672 26.746 10.4805 25.6014C10.3906 25.3241 10.3164 25.0389 10.2617 24.7499C10.2109 24.4647 10.1758 24.1757 10.1562 23.8866L10.1289 23.4374L10.1484 23.0077C10.1602 22.7225 10.1914 22.4413 10.2461 22.16C10.4609 21.0819 10.8867 20.0546 11.4961 19.1405C12.0859 18.2069 12.8906 17.4296 13.8398 16.8671C14.7656 16.3085 15.8633 16.1053 16.9297 16.2928V16.4061C15.9414 16.4257 14.9805 16.7616 14.1953 17.3632C13.4141 17.9608 12.7695 18.7225 12.3047 19.5897C11.8164 20.4413 11.4883 21.371 11.3281 22.3397C11.1797 23.3085 11.2617 24.2968 11.5703 25.2264C11.8672 26.1561 12.4414 26.9764 13.2188 27.5702C13.9961 28.1757 14.9688 28.4764 15.9531 28.4139C16.9297 28.3436 17.8633 27.9686 18.6172 27.3436C19.3789 26.7147 20.0039 25.9413 20.457 25.0624L20.5586 25.1132Z" fill="#EB8F00"/>
<path d="M33.129 16.3359C34.879 16.3359 36.7189 17.4297 37.9455 19.7617C39.7306 23.1484 38.8009 26.457 36.5978 27.8516C35.9259 28.2852 35.1447 28.5156 34.3478 28.5156C32.6017 28.5156 30.758 27.4219 29.5314 25.0898C27.7345 21.6992 28.6759 18.3906 30.879 16.9961C31.5509 16.5664 32.3322 16.3359 33.129 16.3359Z" fill="white"/>
<path d="M33.1289 16.2775C34.1953 16.09 35.293 16.2931 36.2188 16.8517C37.168 17.4142 37.9727 18.1915 38.5625 19.1251C39.1758 20.0509 39.6016 21.0861 39.8125 22.1759C39.8633 22.4572 39.8984 22.7384 39.9102 23.0236V23.4532V23.8868C39.8867 24.4689 39.7773 25.047 39.5898 25.6017C39.2031 26.7462 38.4727 27.7423 37.4922 28.4532C36.5 29.172 35.2734 29.4845 34.0586 29.3322C32.9141 29.1798 31.8555 28.6486 31.0547 27.8204C30.3164 27.0626 29.7773 26.1329 29.4922 25.1134L29.5938 25.0587C30.043 25.9337 30.6641 26.7111 31.4219 27.3439C32.1797 27.9728 33.1133 28.3478 34.0938 28.4181C35.0781 28.4806 36.0508 28.1798 36.8281 27.5743C37.6016 26.9767 38.1758 26.1603 38.4727 25.2306C38.7812 24.3009 38.8633 23.3126 38.7148 22.3439C38.5625 21.3751 38.2383 20.4376 37.7539 19.5822C37.2891 18.715 36.6445 17.9532 35.8633 17.3556C35.0781 16.754 34.1172 16.4181 33.1289 16.3986V16.2775Z" fill="#EB8F00"/>
<defs>
<radialGradient id="paint0_radial_195_2486" cx="0" cy="0" r="1" gradientUnits="userSpaceOnUse" gradientTransform="translate(24.8437 24.5703) scale(22.2499)">
<stop offset="0.5" stop-color="#FDE030"/>
<stop offset="0.92" stop-color="#F7C02B"/>
<stop offset="1" stop-color="#F4A223"/>
</radialGradient>
<linearGradient id="paint1_linear_195_2486" x1="24.8437" y1="46.4062" x2="24.8437" y2="2.73438" gradientUnits="userSpaceOnUse">
<stop offset="0.39" stop-color="#40C0E7" stop-opacity="0"/>
<stop offset="1" stop-color="#5F7AFF"/>
</linearGradient>
<linearGradient id="paint2_linear_195_2486" x1="24.8437" y1="46.4062" x2="24.8437" y2="2.73438" gradientUnits="userSpaceOnUse">
<stop offset="0.16" stop-color="#F4A223"/>
<stop offset="0.33" stop-color="#F7C02B"/>
<stop offset="0.81" stop-color="#FDE030" stop-opacity="0"/>
</linearGradient>
<linearGradient id="paint3_linear_195_2486" x1="38.3986" y1="49.9297" x2="38.3986" y2="30.5156" gradientUnits="userSpaceOnUse">
<stop stop-color="#ED6C30"/>
<stop offset="1" stop-color="#ED6C30" stop-opacity="0.2"/>
</linearGradient>
<radialGradient id="paint4_radial_195_2486" cx="0" cy="0" r="1" gradientUnits="userSpaceOnUse" gradientTransform="translate(35.7427 36.8291) rotate(141.52) scale(17.4602 16.092)">
<stop offset="0.27" stop-color="#FFF176"/>
<stop offset="1" stop-color="#FFC400"/>
</radialGradient>
<linearGradient id="paint5_linear_195_2486" x1="11.3923" y1="49.9297" x2="11.3923" y2="30.5156" gradientUnits="userSpaceOnUse">
<stop stop-color="#ED6C30"/>
<stop offset="1" stop-color="#ED6C30" stop-opacity="0.2"/>
</linearGradient>
<radialGradient id="paint6_radial_195_2486" cx="0" cy="0" r="1" gradientUnits="userSpaceOnUse" gradientTransform="translate(14.0308 36.7997) rotate(38.4802) scale(17.4602 16.092)">
<stop offset="0.27" stop-color="#FFF176"/>
<stop offset="1" stop-color="#FFC400"/>
</radialGradient>
</defs>
</svg>
