<svg width="47" height="46" viewBox="0 0 47 46" fill="none" xmlns="http://www.w3.org/2000/svg">
<path d="M24.2525 29.7583C24.2525 29.7583 25.403 26.537 35.1435 32.1359C44.884 37.7348 38.2114 39.192 35.8338 42.8735C33.3795 46.7083 23.0254 49.9296 23.0254 33.8999V29.6816H24.2525V29.7583Z" fill="#E84D88"/>
<path d="M41.8928 6.36597C49.179 6.36597 45.1907 14.6492 42.6597 20.1714C40.052 25.6936 43.8869 29.9886 41.5093 32.0594C38.1346 35.0506 30.0048 27.3042 24.4826 29.2983V16.7967C24.4826 16.7967 31.9989 6.36597 41.8928 6.36597ZM4.15792 6.36597C-3.12827 6.36597 0.859962 14.6492 3.39096 20.1714C5.99865 25.6936 2.16381 29.9886 4.54141 32.0594C7.91607 35.0506 16.0459 27.3042 21.5681 29.2983V16.7967C21.5681 16.7967 14.0518 6.36597 4.15792 6.36597Z" fill="#9450E0"/>
<path d="M21.7981 29.7583C21.7981 29.7583 20.6476 26.537 10.9072 32.1359C1.16666 37.7348 7.83928 39.192 10.2169 42.8735C12.6712 46.7083 23.0252 49.9296 23.0252 33.8999V29.6816H21.7981V29.7583Z" fill="#E84D88"/>
<path d="M23.0251 19.5578C23.0251 19.5578 14.8953 8.97363 9.06632 8.97363C3.39076 8.97363 13.0546 13.5754 10.3702 16.1831C7.37899 19.0976 9.98668 20.4015 11.674 22.0888C13.8215 24.1596 3.77424 31.8293 18.1932 27.4576C21.4912 26.4605 21.031 27.9177 23.0251 27.9177V19.5578Z" fill="#FFCE31"/>
<path d="M23.0254 19.5578C23.0254 19.5578 31.1553 8.97363 36.9842 8.97363C42.6598 8.97363 32.996 13.5754 35.6804 16.1831C38.6715 19.0976 36.0638 20.4015 34.3765 22.0888C32.229 24.1596 42.2763 31.8293 27.8573 27.4576C24.5593 26.4605 25.0195 27.9177 23.0254 27.9177V19.5578Z" fill="#FFCE31"/>
<path d="M5.30812 10.6611C5.30812 11.198 4.77124 11.5815 4.23436 11.5815C3.62079 11.5815 3.2373 11.1213 3.2373 10.5844C3.2373 10.0475 3.77418 9.66406 4.31106 9.66406C4.92463 9.66406 5.38482 10.1242 5.30812 10.6611Z" fill="#6ADBC6"/>
<path d="M8.45313 14.3424C8.37643 15.1094 7.68616 15.7229 6.84249 15.6462C5.99883 15.5695 5.38525 14.956 5.38525 14.189C5.46195 13.422 6.15222 12.8085 6.99589 12.8851C7.83955 12.9618 8.52982 13.5754 8.45313 14.3424Z" fill="#FFCE31"/>
<path d="M7.37885 18.4838C7.37885 18.944 6.91867 19.3275 6.38179 19.3275C5.84491 19.3275 5.46143 18.8673 5.46143 18.4071C5.46143 17.947 5.92161 17.5635 6.45848 17.5635C6.99536 17.5635 7.45554 18.0237 7.37885 18.4838Z" fill="#6ADBC6"/>
<path d="M9.75657 22.4722C9.75657 23.3925 9.0663 24.0828 8.06924 24.1595C7.07218 24.1595 6.30521 23.4692 6.22852 22.6256C6.22852 21.7052 6.91879 21.0149 7.91585 20.9382C8.9129 20.9382 9.67987 21.6285 9.75657 22.4722Z" fill="#FFCE31"/>
<path d="M8.75929 27.1509C8.75929 27.6878 8.29911 28.148 7.76223 28.148C7.14866 28.148 6.68848 27.7645 6.68848 27.2276C6.68848 26.6908 7.14866 26.2306 7.68554 26.2306C8.22241 26.2306 8.75929 26.6141 8.75929 27.1509ZM40.7419 10.6611C40.7419 11.198 41.2787 11.5815 41.8156 11.5815C42.4292 11.5815 42.8127 11.1213 42.8127 10.5844C42.8127 10.0475 42.2758 9.66406 41.7389 9.66406C41.1253 9.66406 40.6652 10.1242 40.7419 10.6611Z" fill="#6ADBC6"/>
<path d="M37.5981 14.3424C37.6748 15.1094 38.3651 15.7229 39.2087 15.6462C40.0524 15.5695 40.666 14.956 40.666 14.189C40.5893 13.422 39.899 12.8085 39.0554 12.8851C38.2117 12.9618 37.5214 13.5754 37.5981 14.3424Z" fill="#FFCE31"/>
<path d="M38.671 18.4838C38.671 18.944 39.1312 19.3275 39.668 19.3275C40.2049 19.3275 40.5884 18.8673 40.5884 18.4071C40.5884 17.947 40.1282 17.5635 39.5914 17.5635C39.0545 17.5635 38.5943 18.0237 38.671 18.4838Z" fill="#6ADBC6"/>
<path d="M36.2944 22.4722C36.2944 23.3925 36.9847 24.0828 37.9818 24.1595C38.9788 24.1595 39.7458 23.4692 39.8225 22.6256C39.8225 21.7052 39.1322 21.0149 38.1352 20.9382C37.1381 20.9382 36.3711 21.6285 36.2944 22.4722Z" fill="#FFCE31"/>
<path d="M37.2905 27.1508C37.2905 27.6877 37.7507 28.1479 38.2876 28.1479C38.9012 28.1479 39.3613 27.7644 39.3613 27.2275C39.3613 26.6906 38.9012 26.2305 38.3643 26.2305C37.8274 26.2305 37.2905 26.614 37.2905 27.1508Z" fill="#6ADBC6"/>
<path d="M23.4856 20.7847C23.4856 20.7847 17.81 15.1091 12.0578 15.1091C12.0578 15.1091 18.1935 15.646 23.4856 22.0885V20.7847ZM23.7924 23.1623C23.7924 23.1623 16.2761 22.6254 11.751 26.6137C11.751 26.6137 16.9664 22.7021 24.4827 24.1594L23.7924 23.1623Z" fill="#E84D88"/>
<path d="M23.8687 21.9355C23.8687 21.9355 16.8893 18.6375 11.5205 20.6316C11.5205 20.6316 17.5029 18.9443 24.2522 23.0859L23.8687 21.9355Z" fill="#E84D88"/>
<path d="M22.5659 20.7847C22.5659 20.7847 28.2415 15.1091 33.9937 15.1091C33.9937 15.1091 27.858 15.646 22.5659 22.0885V20.7847ZM22.2591 23.1623C22.2591 23.1623 29.7754 22.6254 34.3005 26.6137C34.3005 26.6137 29.0851 22.7021 21.5688 24.1594L22.2591 23.1623Z" fill="#E84D88"/>
<path d="M22.1813 21.9355C22.1813 21.9355 29.1607 18.6375 34.5295 20.6316C34.5295 20.6316 28.5472 18.9443 21.7979 23.0859L22.1813 21.9355Z" fill="#E84D88"/>
<path d="M21.7983 28.8381C21.7983 28.8381 10.6772 31.6759 10.6772 35.4341C10.6772 38.9621 13.7451 37.8884 14.5121 40.266C15.2024 42.6436 23.0254 45.9415 23.0254 29.7585L21.7983 28.8381Z" fill="#FFCE31"/>
<path d="M8.75968 38.1188C9.22562 38.1188 9.60335 37.8098 9.60335 37.4286C9.60335 37.0473 9.22562 36.7383 8.75968 36.7383C8.29374 36.7383 7.91602 37.0473 7.91602 37.4286C7.91602 37.8098 8.29374 38.1188 8.75968 38.1188Z" fill="#FFCE31"/>
<path d="M11.7513 42.1833C12.6832 42.1833 13.4386 41.5308 13.4386 40.726C13.4386 39.9212 12.6832 39.2688 11.7513 39.2688C10.8194 39.2688 10.064 39.9212 10.064 40.726C10.064 41.5308 10.8194 42.1833 11.7513 42.1833Z" fill="#6ADBC6"/>
<path d="M15.1255 44.7143C15.7185 44.7143 16.1993 44.3022 16.1993 43.7939C16.1993 43.2856 15.7185 42.8735 15.1255 42.8735C14.5325 42.8735 14.0518 43.2856 14.0518 43.7939C14.0518 44.3022 14.5325 44.7143 15.1255 44.7143Z" fill="#FFCE31"/>
<path d="M24.2525 28.8381C24.2525 28.8381 35.3736 31.6759 35.3736 35.4341C35.3736 38.9621 32.3057 37.8884 31.5387 40.266C30.8485 42.6436 23.0254 45.9415 23.0254 29.7585L24.2525 28.8381Z" fill="#FFCE31"/>
<path d="M37.2904 38.1188C37.7564 38.1188 38.1341 37.8098 38.1341 37.4286C38.1341 37.0473 37.7564 36.7383 37.2904 36.7383C36.8245 36.7383 36.4468 37.0473 36.4468 37.4286C36.4468 37.8098 36.8245 38.1188 37.2904 38.1188Z" fill="#FFCE31"/>
<path d="M34.2996 42.1833C35.2315 42.1833 35.987 41.5308 35.987 40.726C35.987 39.9212 35.2315 39.2688 34.2996 39.2688C33.3677 39.2688 32.6123 39.9212 32.6123 40.726C32.6123 41.5308 33.3677 42.1833 34.2996 42.1833Z" fill="#6ADBC6"/>
<path d="M30.9253 44.714C31.5183 44.714 31.9991 44.302 31.9991 43.7937C31.9991 43.2853 31.5183 42.8733 30.9253 42.8733C30.3323 42.8733 29.8516 43.2853 29.8516 43.7937C29.8516 44.302 30.3323 44.714 30.9253 44.714Z" fill="#FFCE31"/>
<path d="M24.0993 30.1418C20.9547 30.9855 15.7393 32.8262 12.5947 35.9708C12.5947 35.9708 16.6597 32.3661 24.0993 30.7554V30.1418ZM24.0993 32.0593C21.4916 33.7466 18.347 36.3543 16.8897 39.4222C16.8897 39.4222 18.9606 35.8941 24.0993 32.6728V32.0593Z" fill="#E84D88"/>
<path d="M21.9512 30.1418C25.0957 30.9855 30.3111 32.8262 33.4557 35.9708C33.4557 35.9708 29.3908 32.3661 21.9512 30.7554V30.1418ZM21.9512 32.0593C24.5589 33.7466 27.7034 36.3543 29.1607 39.4222C29.1607 39.4222 27.0899 35.8941 21.9512 32.6728V32.0593Z" fill="#E84D88"/>
<path d="M25.9398 26.1537C25.9398 31.5991 24.636 36.0475 23.0253 36.0475C21.4147 36.0475 20.1108 31.5991 20.1108 26.1537C20.1108 20.7082 20.1108 16.2598 23.0253 16.2598C25.9398 16.2598 25.9398 20.7082 25.9398 26.1537Z" fill="#594640"/>
<path d="M25.9398 16.6431C25.9398 18.4071 24.636 17.1032 23.0253 17.1032C21.4147 17.1032 20.1108 18.4071 20.1108 16.6431C20.1108 14.879 21.4147 13.5752 23.0253 13.5752C24.636 13.5752 25.9398 14.879 25.9398 16.6431Z" fill="#594640"/>
<path d="M22.9489 14.5724C22.5654 13.8054 22.1819 12.8084 21.7984 11.6579C21.7217 11.3511 21.6451 11.121 21.5684 10.8142C21.4917 10.5075 21.4917 10.2007 21.415 9.89389C21.415 9.5871 21.3383 9.28031 21.415 8.97353C21.415 8.66674 21.4917 8.28325 21.4917 7.97647C21.7217 6.51923 22.0285 4.98529 21.9518 3.37466C21.8751 2.53099 21.7217 1.61063 21.0315 0.997058C20.7247 0.690271 20.3412 0.460181 19.881 0.306787C19.4975 0.0766969 19.0374 0 18.6539 0C17.8102 0 17.0432 0.0766968 16.353 0.383484C15.6627 0.690271 14.9724 1.22715 14.7423 1.84072C14.0521 3.22127 14.5122 4.60181 15.2025 5.36878C15.586 5.75226 16.0462 5.98235 16.5064 5.98235C16.9665 5.98235 17.2733 5.90565 17.5801 5.75226C17.8869 5.59887 18.0403 5.44547 18.117 5.36878L18.2704 5.21538C18.2704 5.21538 18.1937 5.29208 18.0403 5.36878C17.8869 5.44547 17.7335 5.59887 17.4267 5.67556C17.1966 5.82896 16.8132 5.90565 16.4297 5.82896C16.1229 5.82896 15.6627 5.67556 15.3559 5.29208C14.7423 4.52511 14.4356 3.22127 15.0491 2.07081C15.3559 1.53394 15.8928 1.15045 16.5064 0.843665C17.1199 0.613574 17.8869 0.536878 18.5772 0.613574C19.2674 0.690271 20.0344 0.920362 20.4179 1.45724C20.8781 1.91742 21.0315 2.60769 21.0315 3.37466C21.0315 4.8319 20.648 6.36584 20.3412 7.74638C20.2645 8.12986 20.1878 8.51335 20.1878 8.89683C20.1111 9.28031 20.1878 9.6638 20.1878 10.0473C20.1878 10.4308 20.2645 10.7376 20.3412 11.121C20.4179 11.4278 20.4946 11.8113 20.5713 12.1181C20.8781 13.3452 21.3383 14.419 21.6451 15.186C21.8751 15.7228 22.3353 15.9529 22.7188 15.7995C23.0256 15.6461 23.1023 15.1093 22.9489 14.5724Z" fill="#594640"/>
<path d="M23.1023 14.5724C23.4857 13.8054 23.8692 12.8084 24.2527 11.6579C24.3294 11.3511 24.4061 11.121 24.4828 10.8142C24.5595 10.5075 24.5595 10.2007 24.6362 9.89389C24.6362 9.5871 24.7129 9.28031 24.6362 8.97353C24.6362 8.66674 24.5595 8.28325 24.5595 7.97647C24.3294 6.51923 24.0226 4.98529 24.0993 3.37466C24.176 2.53099 24.3294 1.61063 25.0197 0.997058C25.3265 0.690271 25.71 0.460181 26.1701 0.306787C26.5536 0.0766969 27.0138 0 27.3973 0C28.241 0 29.0079 0.0766968 29.6982 0.383484C30.3885 0.690271 31.0787 1.22715 31.3088 1.84072C31.9991 3.22127 31.5389 4.60181 30.8486 5.36878C30.4652 5.75226 30.005 5.98235 29.5448 5.98235C29.0846 5.98235 28.7778 5.90565 28.471 5.75226C28.1643 5.59887 28.0109 5.44547 27.9342 5.36878L27.7808 5.21538C27.7808 5.21538 27.8575 5.29208 28.0109 5.36878C28.1643 5.44547 28.3176 5.59887 28.6244 5.67556C28.8545 5.82896 29.238 5.90565 29.6215 5.82896C29.9283 5.82896 30.3885 5.67556 30.6953 5.29208C31.3088 4.52511 31.6156 3.22127 31.002 2.07081C30.6953 1.53394 30.1584 1.15045 29.5448 0.843665C28.9312 0.613574 28.1643 0.536878 27.474 0.613574C26.7837 0.690271 26.0167 0.920362 25.6333 1.45724C25.1731 1.91742 25.0197 2.60769 25.0197 3.37466C25.0197 4.8319 25.4032 6.36584 25.6333 7.74638C25.71 8.12986 25.7867 8.51335 25.7867 8.89683C25.8634 9.28031 25.7867 9.6638 25.7867 10.0473C25.7867 10.4308 25.71 10.7376 25.6333 11.121C25.5566 11.4278 25.4799 11.8113 25.4032 12.1181C25.0964 13.3452 24.6362 14.419 24.3294 15.186C24.0993 15.7228 23.6391 15.9529 23.2557 15.7995C23.0256 15.6461 22.9489 15.1093 23.1023 14.5724Z" fill="#594640"/>
</svg>
