<svg width="25" height="25" viewBox="0 0 25 25" fill="none" xmlns="http://www.w3.org/2000/svg">
<path fill-rule="evenodd" clip-rule="evenodd" d="M12.2423 17.6703C13.3469 17.6785 14.2356 18.5806 14.2274 19.6851C14.2191 20.7896 13.3171 21.6784 12.2125 21.6702C11.108 21.6619 10.2193 20.7599 10.2275 19.6553C10.2357 18.5508 11.1378 17.662 12.2423 17.6703ZM12.2944 10.6705C13.399 10.6787 14.2877 11.5807 14.2795 12.6853C14.2713 13.7898 13.3692 14.6786 12.2646 14.6703C11.1601 14.6621 10.2714 13.7601 10.2796 12.6555C10.2878 11.551 11.1899 10.6622 12.2944 10.6705ZM12.3465 3.67065C13.4511 3.67887 14.3398 4.58094 14.3316 5.68548C14.3234 6.79002 13.4213 7.67876 12.3168 7.67054C11.2122 7.66232 10.3235 6.76025 10.3317 5.65571C10.3399 4.55117 11.242 3.66243 12.3465 3.67065Z" fill="#6B7178"/>
</svg>
