<svg width="44" height="45" viewBox="0 0 44 45" fill="none" xmlns="http://www.w3.org/2000/svg">
<path opacity="0.4" d="M22 44.0103C34.1502 44.0103 44 34.1606 44 22.0102C44 9.85999 34.1502 0.0102539 22 0.0102539C9.84973 0.0102539 0 9.85999 0 22.0102C0 34.1606 9.84973 44.0103 22 44.0103Z" fill="#292D32"/>
<path d="M22 10.8555C17.446 10.8555 13.75 14.5515 13.75 19.1054C13.75 23.5714 17.248 27.2014 21.89 27.3334H22.088H22.242H22.286C26.73 27.1794 30.228 23.5714 30.25 19.1054C30.25 14.5515 26.554 10.8555 22 10.8555Z" fill="#292D32"/>
<path d="M36.9176 38.1799C33.0016 41.7879 27.7656 44.0099 22.0016 44.0099C16.2376 44.0099 11.0016 41.7879 7.08557 38.1799C7.61357 36.1779 9.04357 34.3519 11.1336 32.9439C17.1396 28.9399 26.9076 28.9399 32.8696 32.9439C34.9816 34.3519 36.3896 36.1779 36.9176 38.1799Z" fill="#292D32"/>
</svg>
