<svg width="21" height="21" viewBox="0 0 21 21" fill="none" xmlns="http://www.w3.org/2000/svg">
<path d="M19.74 10.7188C19.74 10.0362 19.6788 9.38 19.565 8.75H10.5V12.4731H15.68C15.4569 13.6762 14.7788 14.6956 13.7594 15.3781V17.7931H16.87C18.69 16.1175 19.74 13.65 19.74 10.7188Z" fill="#4285F4"/>
<path d="M10.4997 20.1249C13.0984 20.1249 15.2772 19.263 16.8697 17.793L13.7591 15.378C12.8972 15.9555 11.7947 16.2967 10.4997 16.2967C7.99281 16.2967 5.87094 14.6036 5.11406 12.3286H1.89844V14.8224C3.48219 17.968 6.73719 20.1249 10.4997 20.1249Z" fill="#34A853"/>
<path d="M5.11438 12.329C4.92188 11.7515 4.8125 11.1346 4.8125 10.5002C4.8125 9.86586 4.92188 9.24898 5.11438 8.67148V6.17773H1.89875C1.24688 7.47711 0.875 8.94711 0.875 10.5002C0.875 12.0534 1.24688 13.5234 1.89875 14.8227L5.11438 12.329Z" fill="#FBBC05"/>
<path d="M10.4997 4.70312C11.9128 4.70312 13.1816 5.18875 14.1791 6.1425L16.9397 3.38187C15.2728 1.82875 13.0941 0.875 10.4997 0.875C6.73719 0.875 3.48219 3.03187 1.89844 6.1775L5.11406 8.67125C5.87094 6.39625 7.99281 4.70312 10.4997 4.70312Z" fill="#EA4335"/>
</svg>
