<svg width="24" height="24" viewBox="0 0 24 24" fill="none" xmlns="http://www.w3.org/2000/svg">
<path fill-rule="evenodd" clip-rule="evenodd" d="M17.0293 6.1543V5.13093C17.0293 3.77012 16.4993 2.46505 15.5558 1.50281C14.6123 0.540578 13.3326 0 11.9983 0C10.664 0 9.3843 0.540578 8.4408 1.50281C7.49729 2.46505 6.96724 3.77012 6.96724 5.13093V6.1543H5.53103L2.66379 3.21606L1.64138 4.2535L4.41897 7.1003L4.38621 7.18646C3.80581 8.77905 3.51202 10.4654 3.51897 12.1644C3.51897 12.509 3.53103 12.8502 3.55345 13.1843L3.55862 13.2634H0V14.7334H3.73965L3.75 14.7932C4.04655 16.4478 4.61897 17.9618 5.39483 19.2436L5.45345 19.3403L2.06897 22.792L3.08966 23.833L6.31552 20.5413L6.41552 20.6573C7.91207 22.4016 9.86724 23.4514 11.9983 23.4514C14.0983 23.4514 16.0259 22.4333 17.5138 20.7365L17.6121 20.6239L20.9052 24L21.9276 22.9608L18.4862 19.4335L18.5466 19.335C19.3517 18.0338 19.9431 16.4882 20.2466 14.7932L20.2569 14.7334H24V13.2634H20.4397L20.4448 13.186C20.4678 12.8466 20.4793 12.5064 20.4793 12.1662C20.4862 10.4449 20.1841 8.73695 19.5879 7.12668L19.5552 7.03876L22.2621 4.27812L21.2414 3.24068L18.3828 6.1543H17.0293ZM8.40862 6.1543V5.13093C8.40862 4.15999 8.78682 3.22882 9.46001 2.54226C10.1332 1.8557 11.0462 1.47 11.9983 1.47C12.9503 1.47 13.8634 1.8557 14.5365 2.54226C15.2097 3.22882 15.5879 4.15999 15.5879 5.13093V6.1543H8.40862ZM18.231 7.62605L18.2655 7.71925C18.7534 9.0433 19.0362 10.5502 19.0362 12.1644C19.0362 14.9954 18.169 17.4993 16.8397 19.2629C15.5121 21.0231 13.7862 21.9796 11.9983 21.9796C10.2121 21.9796 8.48621 21.0231 7.15862 19.2629C5.82759 17.4993 4.96034 14.9954 4.96034 12.1644C4.96034 10.5502 5.2431 9.0433 5.73276 7.71925L5.76724 7.62605H18.231Z" fill="#000000"/>
</svg>
