<svg width="30" height="35" viewBox="0 0 30 35" fill="none" xmlns="http://www.w3.org/2000/svg">
<rect x="0.91095" y="1.33057" width="28.4795" height="32.3099" rx="14.2397" fill="white"/>
<rect x="0.91095" y="1.33057" width="28.4795" height="32.3099" rx="14.2397" stroke="#C0C6CD"/>
<path fill-rule="evenodd" clip-rule="evenodd" d="M15.1507 11.9341C15.4899 11.9341 15.7648 12.2448 15.7648 12.628V16.7918L19.4498 16.7918C19.7889 16.7918 20.0639 17.1025 20.0639 17.4857C20.0639 17.869 19.7889 18.1797 19.4498 18.1797L15.7648 18.1797L15.7648 22.3434C15.7648 22.7267 15.4899 23.0374 15.1507 23.0374C14.8115 23.0374 14.5365 22.7267 14.5365 22.3434L14.5365 18.1797H10.8516C10.5124 18.1797 10.2374 17.869 10.2374 17.4857C10.2374 17.1025 10.5124 16.7918 10.8516 16.7918H14.5365V12.628C14.5365 12.2448 14.8115 11.9341 15.1507 11.9341Z" fill="#27292C"/>
</svg>
