<svg width="28" height="28" viewBox="0 0 28 28" fill="none" xmlns="http://www.w3.org/2000/svg">
<path d="M3.5 22.1667V5.83333C3.5 4.54467 4.54467 3.5 5.83333 3.5H22.1667C23.4554 3.5 24.5 4.54467 24.5 5.83333V22.1667C24.5 23.4554 23.4554 24.5 22.1667 24.5H5.83333C4.54467 24.5 3.5 23.4554 3.5 22.1667Z" stroke="white" stroke-width="1.5"/>
<path d="M16.1656 16.1581C16.8871 15.4346 17.3333 14.4361 17.3333 13.3335C17.3333 11.1244 15.5424 9.3335 13.3334 9.3335C11.1242 9.3335 9.33333 11.1244 9.33333 13.3335C9.33333 15.5426 11.1242 17.3334 13.3334 17.3334C14.4398 17.3334 15.4414 16.8843 16.1656 16.1581ZM16.1656 16.1581L18.6667 18.6668" stroke="white" stroke-width="1.5" stroke-linecap="round" stroke-linejoin="round"/>
</svg>
