<svg width="46" height="46" viewBox="0 0 46 46" fill="none" xmlns="http://www.w3.org/2000/svg">
<path d="M46.0001 23.0042C46.0001 35.7175 35.7375 45.9801 23.0242 45.9801C10.3109 45.9801 0.0483398 35.7175 0.0483398 23.0042C0.0483398 10.2909 10.3109 0.0283203 23.0242 0.0283203C35.7375 0.0283203 46.0001 10.2909 46.0001 23.0042Z" fill="#FFDD67"/>
<path d="M45.8468 8.60591C45.4639 6.53808 44.3151 4.85319 42.4004 4.31708C40.3326 3.78098 38.4946 4.54684 36.7331 6.38491C35.7374 3.62781 34.2057 1.55998 31.755 0.487772C29.3042 -0.584435 26.8534 0.181427 25.3217 2.09608C23.7134 4.08733 23.1007 7.22736 24.7856 11.2864C26.3939 15.1157 33.5164 22.7744 33.7462 23.0041C34.0525 22.851 42.0175 17.8728 43.9322 15.4221C45.8468 13.0479 46.2298 10.6737 45.8468 8.60591ZM20.7265 2.09608C19.1948 0.181427 16.7441 -0.584435 14.2933 0.487772C11.8425 1.55998 10.3108 3.62781 9.3152 6.38491C7.47713 4.62343 5.63906 3.78098 3.57123 4.39367C1.73316 4.92977 0.50778 6.61467 0.124849 8.6825C-0.258082 10.6737 0.201435 13.1245 2.03951 15.4987C4.03075 17.8728 11.9957 22.851 12.3021 23.0041C12.5318 22.7744 19.6543 15.1157 21.2626 11.2864C22.9475 7.22736 22.3349 4.16391 20.7265 2.09608Z" fill="#F46767"/>
<path d="M36.0437 27.676C36.0437 27.0633 35.6608 26.2974 34.6652 26.0676C31.9846 25.5315 28.0787 25.072 23.0241 25.072C17.9694 25.072 14.0635 25.6081 11.3829 26.0676C10.3107 26.2974 10.0044 27.0633 10.0044 27.676C10.0044 33.2667 14.2932 38.8575 23.0241 38.8575C31.7549 38.781 36.0437 33.1902 36.0437 27.676Z" fill="#664E27"/>
<path d="M32.7508 27.8291C31.0659 27.5227 27.543 27.0632 23.0244 27.0632C18.5058 27.0632 14.9828 27.5227 13.2979 27.8291C12.3023 27.9823 12.2257 28.3652 12.3023 28.9779C12.3789 29.2842 12.3789 29.7438 12.5321 30.2033C12.6086 30.6628 12.7618 30.8925 13.5277 30.816C14.9828 30.6628 31.1425 30.6628 32.5977 30.816C33.3635 30.8925 33.4401 30.6628 33.5933 30.2033C33.6699 29.7438 33.7464 29.3608 33.823 28.9779C33.823 28.3652 33.7464 27.9823 32.7508 27.8291Z" fill="white"/>
</svg>
