<svg width="48" height="48" viewBox="0 0 48 48" fill="none" xmlns="http://www.w3.org/2000/svg">
<path d="M14.5873 16.0874H3.41229C3.04479 16.0874 2.74854 15.7912 2.74854 15.4237V12.2512C2.75229 11.8837 3.04854 11.5874 3.41229 11.5874H14.5873C14.9548 11.5874 15.251 11.8837 15.251 12.2512V15.4237C15.251 15.7912 14.9548 16.0874 14.5873 16.0874Z" fill="url(#paint0_linear_195_2503)"/>
<path d="M1.50391 19.0874H46.5002V44.5874H1.50391V19.0874Z" fill="url(#paint1_linear_195_2503)"/>
<path d="M45 46.4624H3C2.17125 46.4624 1.5 45.7912 1.5 44.9624V43.4624H46.4963V44.9624C46.4963 45.7912 45.825 46.4624 45 46.4624Z" fill="#BDBDBD"/>
<path d="M45 10.4624H18C17.1713 10.4624 16.5 11.1337 16.5 11.9624V13.8374C16.5 14.2499 16.1625 14.5874 15.75 14.5874H3C2.17125 14.5874 1.5 15.2587 1.5 16.0874V20.5874H46.4963V11.9624C46.4963 11.1337 45.825 10.4624 45 10.4624Z" fill="#BDBDBD"/>
<path opacity="0.2" d="M26.3888 14.5874C26.7263 14.5874 27 14.8612 27 15.1987V16.9724C27 17.3099 26.7263 17.5837 26.3888 17.5837H20.1113C19.7738 17.5837 19.5 17.3099 19.5 16.9724V15.1987C19.5 14.8612 19.7738 14.5874 20.1113 14.5874H26.3888ZM26.3888 13.8374H20.1113C19.3613 13.8374 18.75 14.4487 18.75 15.1987V16.9724C18.75 17.7224 19.3613 18.3337 20.1113 18.3337H26.385C27.135 18.3337 27.7462 17.7224 27.7462 16.9724V15.1987C27.75 14.4487 27.1388 13.8374 26.3888 13.8374Z" fill="#424242"/>
<path opacity="0.2" d="M42.45 13.5376C42.8212 13.5376 43.125 13.8413 43.125 14.2126V16.9126C43.125 17.2838 42.8212 17.5876 42.45 17.5876H37.05C36.6788 17.5876 36.375 17.2838 36.375 16.9126V14.2126C36.375 13.8413 36.6788 13.5376 37.05 13.5376H42.45ZM42.45 12.7876H37.05C36.2625 12.7876 35.625 13.4251 35.625 14.2126V16.9126C35.625 17.7001 36.2625 18.3376 37.05 18.3376H42.45C43.2375 18.3376 43.875 17.7001 43.875 16.9126V14.2126C43.875 13.4251 43.2337 12.7876 42.45 12.7876Z" fill="#424242"/>
<path d="M42.45 17.5876H37.05C36.6788 17.5876 36.375 17.2838 36.375 16.9126V14.2126C36.375 13.8413 36.6788 13.5376 37.05 13.5376H42.45C42.8212 13.5376 43.125 13.8413 43.125 14.2126V16.9126C43.125 17.2838 42.8212 17.5876 42.45 17.5876Z" fill="#424242"/>
<path d="M26.3888 17.5876H20.1113C19.7738 17.5876 19.5 17.3138 19.5 16.9763V15.2026C19.5 14.8651 19.7738 14.5913 20.1113 14.5913H26.385C26.7225 14.5913 26.9962 14.8651 26.9962 15.2026V16.9763C27 17.3138 26.7263 17.5876 26.3888 17.5876Z" fill="#E0E0E0"/>
<path d="M30.75 17.5874C30.3375 17.5874 30 17.2499 30 16.8374V15.3374C30 14.9249 30.3375 14.5874 30.75 14.5874C31.1625 14.5874 31.5 14.9249 31.5 15.3374V16.8374C31.5 17.2499 31.1625 17.5874 30.75 17.5874Z" fill="#E0E0E0"/>
<path d="M30.75 15.7124C30.5437 15.7124 30.375 15.5437 30.375 15.3374C30.375 15.1312 30.5437 14.9624 30.75 14.9624C30.9563 14.9624 31.125 15.1312 31.125 15.3374C31.125 15.5437 30.9563 15.7124 30.75 15.7124Z" fill="#757575"/>
<path d="M30.75 17.2124C30.5437 17.2124 30.375 17.0437 30.375 16.8374C30.375 16.6312 30.5437 16.4624 30.75 16.4624C30.9563 16.4624 31.125 16.6312 31.125 16.8374C31.125 17.0437 30.9563 17.2124 30.75 17.2124Z" fill="#FAFAFA"/>
<path d="M20.0625 14.5874H20.4375V17.5874H20.0625V14.5874Z" fill="#F5F5F5"/>
<path d="M20.8276 14.5874H21.2026V17.5874H20.8276V14.5874Z" fill="#F5F5F5"/>
<path d="M21.5923 14.5874H21.9673V17.5874H21.5923V14.5874Z" fill="#F5F5F5"/>
<path d="M22.3574 14.5874H22.7324V17.5874H22.3574V14.5874Z" fill="#F5F5F5"/>
<path d="M23.1226 14.5874H23.4976V17.5874H23.1226V14.5874Z" fill="#F5F5F5"/>
<path d="M23.8877 14.5874H24.2627V17.5874H23.8877V14.5874Z" fill="#F5F5F5"/>
<path d="M24.6489 14.5874H25.0239V17.5874H24.6489V14.5874Z" fill="#F5F5F5"/>
<path d="M25.4136 14.5874H25.7886V17.5874H25.4136V14.5874Z" fill="#F5F5F5"/>
<path d="M26.1787 14.5874H26.5537V17.5874H26.1787V14.5874Z" fill="#F5F5F5"/>
<path opacity="0.2" d="M16.6875 22.0874C17.31 22.0874 17.8125 22.5899 17.8125 23.2124C17.8125 23.8349 17.31 24.3374 16.6875 24.3374C16.065 24.3374 15.5625 23.8349 15.5625 23.2124C15.5625 22.5899 16.065 22.0874 16.6875 22.0874ZM16.6875 21.3374C15.6525 21.3374 14.8125 22.1774 14.8125 23.2124C14.8125 24.2474 15.6525 25.0874 16.6875 25.0874C17.7225 25.0874 18.5625 24.2474 18.5625 23.2124C18.5625 22.1774 17.7225 21.3374 16.6875 21.3374Z" fill="#424242"/>
<path opacity="0.2" d="M30.75 14.5874C31.1625 14.5874 31.5 14.9249 31.5 15.3374V16.8374C31.5 17.2499 31.1625 17.5874 30.75 17.5874C30.3375 17.5874 30 17.2499 30 16.8374V15.3374C30 14.9249 30.3375 14.5874 30.75 14.5874ZM30.75 13.8374C29.9212 13.8374 29.25 14.5087 29.25 15.3374V16.8374C29.25 17.6662 29.9212 18.3374 30.75 18.3374C31.5788 18.3374 32.25 17.6662 32.25 16.8374V15.3374C32.25 14.5087 31.575 13.8374 30.75 13.8374Z" fill="#424242"/>
<path d="M16.6875 24.3374C17.3088 24.3374 17.8125 23.8337 17.8125 23.2124C17.8125 22.5911 17.3088 22.0874 16.6875 22.0874C16.0662 22.0874 15.5625 22.5911 15.5625 23.2124C15.5625 23.8337 16.0662 24.3374 16.6875 24.3374Z" fill="#E0E0E0"/>
<path opacity="0.2" d="M11.625 19.0874C12.0375 19.0874 12.375 19.4249 12.375 19.8374V21.4949C13.035 21.7837 13.5 22.4437 13.5 23.2124C13.5 24.2474 12.66 25.0874 11.625 25.0874C10.59 25.0874 9.75 24.2474 9.75 23.2124C9.75 22.4437 10.215 21.7837 10.875 21.4949V19.8374C10.875 19.4249 11.2125 19.0874 11.625 19.0874ZM11.625 18.3374C10.7962 18.3374 10.125 19.0087 10.125 19.8374V21.0599C9.4275 21.5437 9 22.3462 9 23.2124C9 24.6599 10.1775 25.8374 11.625 25.8374C13.0725 25.8374 14.25 24.6599 14.25 23.2124C14.25 22.3462 13.8225 21.5437 13.125 21.0599V19.8374C13.125 19.0087 12.4538 18.3374 11.625 18.3374Z" fill="#424242"/>
<path d="M29.25 43.8374C35.8774 43.8374 41.25 38.4648 41.25 31.8374C41.25 25.21 35.8774 19.8374 29.25 19.8374C22.6226 19.8374 17.25 25.21 17.25 31.8374C17.25 38.4648 22.6226 43.8374 29.25 43.8374Z" fill="#8D8C8C"/>
<path d="M29.25 41.5874C34.6348 41.5874 39 37.2222 39 31.8374C39 26.4526 34.6348 22.0874 29.25 22.0874C23.8652 22.0874 19.5 26.4526 19.5 31.8374C19.5 37.2222 23.8652 41.5874 29.25 41.5874Z" fill="url(#paint2_linear_195_2503)"/>
<path d="M29.25 40.4624C34.0135 40.4624 37.875 36.6009 37.875 31.8374C37.875 27.0739 34.0135 23.2124 29.25 23.2124C24.4865 23.2124 20.625 27.0739 20.625 31.8374C20.625 36.6009 24.4865 40.4624 29.25 40.4624Z" fill="url(#paint3_radial_195_2503)"/>
<path d="M29.25 35.5874C31.3211 35.5874 33 33.9085 33 31.8374C33 29.7663 31.3211 28.0874 29.25 28.0874C27.1789 28.0874 25.5 29.7663 25.5 31.8374C25.5 33.9085 27.1789 35.5874 29.25 35.5874Z" fill="url(#paint4_radial_195_2503)"/>
<path opacity="0.2" d="M29.25 28.0874C31.32 28.0874 33 29.7674 33 31.8374C33 33.9074 31.32 35.5874 29.25 35.5874C27.18 35.5874 25.5 33.9074 25.5 31.8374C25.5 29.7674 27.18 28.0874 29.25 28.0874ZM29.25 26.9624C26.5612 26.9624 24.375 29.1487 24.375 31.8374C24.375 34.5262 26.5612 36.7124 29.25 36.7124C31.9388 36.7124 34.125 34.5262 34.125 31.8374C34.125 29.1487 31.9388 26.9624 29.25 26.9624Z" fill="#EEEEEE"/>
<path d="M11.6362 23.5874C11.2237 23.5874 10.8862 23.2499 10.8862 22.8374V19.8374C10.8862 19.4249 11.2237 19.0874 11.6362 19.0874C12.0487 19.0874 12.3862 19.4249 12.3862 19.8374V22.8374C12.3862 23.2499 12.0487 23.5874 11.6362 23.5874Z" fill="url(#paint5_linear_195_2503)"/>
<path d="M11.6362 25.0874C12.6718 25.0874 13.5112 24.2479 13.5112 23.2124C13.5112 22.1769 12.6718 21.3374 11.6362 21.3374C10.6007 21.3374 9.76123 22.1769 9.76123 23.2124C9.76123 24.2479 10.6007 25.0874 11.6362 25.0874Z" fill="#E0E0E0"/>
<path d="M11.6362 24.5249C10.9125 24.5249 10.3237 23.9362 10.3237 23.2124C10.3237 22.4887 10.9125 21.8999 11.6362 21.8999C12.36 21.8999 12.9487 22.4887 12.9487 23.2124C12.9487 23.9362 12.36 24.5249 11.6362 24.5249Z" fill="#757575"/>
<path d="M11.6362 22.0874C12.2587 22.0874 12.7612 22.5899 12.7612 23.2124C12.7612 23.8349 12.2587 24.3374 11.6362 24.3374C11.0137 24.3374 10.5112 23.8349 10.5112 23.2124C10.5112 22.5899 11.0137 22.0874 11.6362 22.0874ZM11.6362 21.7124C10.8075 21.7124 10.1362 22.3837 10.1362 23.2124C10.1362 24.0412 10.8075 24.7124 11.6362 24.7124C12.465 24.7124 13.1362 24.0412 13.1362 23.2124C13.1362 22.3837 12.465 21.7124 11.6362 21.7124Z" fill="#9E9E9E"/>
<path d="M11.6514 21.0487H11.6251C11.4264 21.0487 11.2651 20.8875 11.2651 20.6887V19.9125C11.2651 19.7137 11.4264 19.5525 11.6251 19.5525H11.6514C11.8501 19.5525 12.0114 19.7137 12.0114 19.9125V20.6887C12.0114 20.8875 11.8501 21.0487 11.6514 21.0487Z" fill="#F44336"/>
<path opacity="0.2" d="M29.25 28.8374C30.9037 28.8374 32.25 30.1837 32.25 31.8374C32.25 33.4912 30.9037 34.8374 29.25 34.8374C27.5963 34.8374 26.25 33.4912 26.25 31.8374C26.25 30.1837 27.5963 28.8374 29.25 28.8374ZM29.25 28.0874C27.18 28.0874 25.5 29.7674 25.5 31.8374C25.5 33.9074 27.18 35.5874 29.25 35.5874C31.32 35.5874 33 33.9074 33 31.8374C33 29.7674 31.32 28.0874 29.25 28.0874Z" fill="#424242"/>
<path d="M28.3687 1.95381L26.655 7.40256C26.6287 7.48506 26.52 7.50756 26.4637 7.44381L22.995 3.45756C22.9162 3.36756 22.77 3.44631 22.8 3.55881L23.7862 7.32006C23.8087 7.41381 23.7187 7.49256 23.6325 7.45131C22.3162 6.81756 16.6012 4.58256 16.68 4.87506C16.7587 5.16756 20.385 8.63631 21.3487 9.55131C21.4162 9.61506 21.3787 9.73131 21.285 9.74256L15.6825 10.5263C15.5625 10.5413 15.5512 10.7101 15.6637 10.7438L21.6787 12.5851C21.7725 12.6151 21.7912 12.7388 21.705 12.7876C20.5575 13.4513 15.345 16.4663 15.555 16.4663C15.7725 16.4663 22.515 16.1888 23.5612 16.1476C23.6325 16.1438 23.685 16.2076 23.6775 16.2788L22.7475 22.1476C22.7287 22.2638 22.8787 22.3276 22.95 22.2338L27.0825 16.7251C27.1275 16.6613 27.2212 16.6651 27.2662 16.7288L30.0112 20.8501C30.0675 20.9363 30.2025 20.9063 30.2175 20.8013L30.7537 16.8001C30.765 16.7138 30.87 16.6726 30.9375 16.7288L34.9275 20.0888C35.0062 20.1563 35.1262 20.0888 35.1112 19.9876L34.7025 16.7888C34.6912 16.7026 34.7775 16.6351 34.86 16.6726L42.0225 19.8638C42.1425 19.9163 42.24 19.7513 42.135 19.6726L36.7762 14.5201C36.7087 14.4676 36.7237 14.3588 36.8025 14.3288L41.865 12.2251C41.9662 12.1838 41.955 12.0376 41.85 12.0113L36.375 10.6426C36.2887 10.6201 36.2625 10.5151 36.3225 10.4551L40.3462 6.43131C40.4287 6.34881 40.3425 6.20631 40.23 6.24381L34.2113 8.25006C34.1137 8.28381 34.0275 8.17881 34.0762 8.08881L37.4025 2.23506C37.4625 2.12631 37.3312 2.01381 37.2337 2.09256L30.315 7.49256C30.2512 7.54131 30.1575 7.51131 30.1387 7.43631L28.59 1.96131C28.5525 1.84881 28.4025 1.84881 28.3687 1.95381Z" fill="url(#paint6_radial_195_2503)"/>
<defs>
<linearGradient id="paint0_linear_195_2503" x1="8.99978" y1="11.7276" x2="8.99978" y2="14.6342" gradientUnits="userSpaceOnUse">
<stop stop-color="#BDBDBD"/>
<stop offset="0.2106" stop-color="#B8B8B8"/>
<stop offset="0.4759" stop-color="#A8A8A8"/>
<stop offset="0.7694" stop-color="#8E8E8E"/>
<stop offset="1" stop-color="#757575"/>
</linearGradient>
<linearGradient id="paint1_linear_195_2503" x1="24.035" y1="19.0291" x2="23.969" y2="44.6448" gradientUnits="userSpaceOnUse">
<stop stop-color="#616161"/>
<stop offset="1" stop-color="#212121"/>
</linearGradient>
<linearGradient id="paint2_linear_195_2503" x1="29.25" y1="22.039" x2="29.25" y2="41.4932" gradientUnits="userSpaceOnUse">
<stop stop-color="#616161"/>
<stop offset="1" stop-color="#212121"/>
</linearGradient>
<radialGradient id="paint3_radial_195_2503" cx="0" cy="0" r="1" gradientUnits="userSpaceOnUse" gradientTransform="translate(29.2023 23.0713) scale(17.5775 17.5792)">
<stop stop-color="#424242"/>
<stop offset="1" stop-color="#212121"/>
</radialGradient>
<radialGradient id="paint4_radial_195_2503" cx="0" cy="0" r="1" gradientUnits="userSpaceOnUse" gradientTransform="translate(29.2023 31.837) scale(3.74962 3.75)">
<stop stop-color="#757575"/>
<stop offset="0.2031" stop-color="#6A6A6A"/>
<stop offset="0.5578" stop-color="#4D4D4D"/>
<stop offset="1" stop-color="#212121"/>
</radialGradient>
<linearGradient id="paint5_linear_195_2503" x1="11.6362" y1="19.1222" x2="11.6362" y2="22.1571" gradientUnits="userSpaceOnUse">
<stop stop-color="#E0E0E0"/>
<stop offset="1" stop-color="#9E9E9E"/>
</linearGradient>
<radialGradient id="paint6_radial_195_2503" cx="0" cy="0" r="1" gradientUnits="userSpaceOnUse" gradientTransform="translate(28.9229 12.1066) scale(12.0273 8.66293)">
<stop stop-color="#FFFF00"/>
<stop offset="0.1609" stop-color="#FEF802"/>
<stop offset="0.4013" stop-color="#FCE307"/>
<stop offset="0.6913" stop-color="#F9C20F"/>
<stop offset="1" stop-color="#F49719"/>
</radialGradient>
</defs>
</svg>
