<svg width="52" height="52" viewBox="0 0 52 52" fill="none" xmlns="http://www.w3.org/2000/svg">
<path d="M43.7937 30.814C43.1518 29.6602 42.3759 28.5674 41.5674 27.5193C40.3812 25.9756 39.1137 24.4927 38.029 22.8799C36.9443 21.2712 36.1237 19.5771 34.7384 18.1674C33.4912 16.8593 31.9149 15.9777 30.2534 15.5959C29.6278 15.3724 29.0509 14.9946 28.6365 14.5924H28.8437V12.9715H28.5349C28.539 12.5652 28.5837 12.4352 28.6771 12.2037C29.3068 10.3959 29.8837 8.60431 30.5134 6.79649C30.6596 6.35774 30.8018 5.94743 31.0943 5.60618C31.4315 5.16743 31.9637 4.86274 32.3496 4.42399C32.7356 3.98524 32.8818 3.24587 32.3984 2.85587C31.5778 2.70962 30.7084 2.80306 29.9324 3.14837C30.1721 2.70962 29.8837 2.12056 29.449 1.87681C29.0143 1.63306 28.4821 1.63306 27.9987 1.63306C26.8368 1.63306 25.6303 1.68181 24.4724 1.68181C23.9403 1.68181 23.3106 1.73056 22.9734 2.12056C22.7784 2.31556 22.7337 2.55931 22.5387 2.75431C22.0065 3.33931 21.0884 3.14431 20.3165 2.99806C19.5446 2.85181 18.529 2.94931 18.2853 3.72931C18.2365 4.02181 18.2853 4.26556 18.334 4.55806C18.9637 7.09712 20.1093 9.92868 21.6531 12.0249C21.9009 12.4352 21.9212 12.5612 22.0715 12.9674H21.9374V14.4056C21.9374 14.6249 21.064 15.0068 20.9015 15.0962C18.9881 16.1402 17.2534 17.879 15.7218 19.4065C14.1009 21.0193 12.6221 22.7702 11.2978 24.6349C9.11213 27.7102 6.7965 31.3218 6.54057 35.169C6.40244 37.2124 6.84932 39.3534 7.88525 41.1287C9.07557 43.1681 10.924 44.8743 12.7359 46.3652C14.5437 47.8521 16.6562 48.9774 18.9028 49.6396C18.9271 49.6477 18.9474 49.6518 18.9718 49.6599C23.7656 51.0615 29.2824 50.2002 33.8771 48.429C36.9727 47.2346 39.7149 45.4227 42.0996 43.1193C43.3102 41.9493 44.3543 40.5762 44.9312 38.9959C45.9387 36.1968 45.1993 33.3368 43.7937 30.814Z" fill="url(#paint0_linear_195_2504)"/>
<path opacity="0.2" d="M27.9987 2.85181C28.2506 2.85181 28.5512 2.85181 28.7381 2.90056C28.6609 3.27837 28.7624 3.68056 29.0346 3.97306C29.2703 4.22899 29.5993 4.36712 29.9324 4.36712C30.099 4.36712 30.2656 4.33462 30.424 4.26149C30.5743 4.19649 30.7328 4.14368 30.8912 4.10306C30.6434 4.30618 30.3753 4.54181 30.1437 4.83837C29.7334 5.33399 29.5343 5.86618 29.3596 6.39431C29.0428 7.30431 28.734 8.22243 28.4374 9.11212C28.1449 9.98556 27.8403 10.8915 27.5315 11.7771C27.3893 12.1387 27.3203 12.4149 27.3162 12.9552C27.3121 13.2599 27.4218 13.5565 27.6249 13.7799V13.9059C27.5803 13.9749 27.5396 14.0481 27.5071 14.1293C27.3203 14.5884 27.4299 15.1124 27.7834 15.4618C28.3481 16.0143 29.0793 16.4693 29.8431 16.7415C29.8878 16.7577 29.9365 16.7699 29.9812 16.7821C31.4518 17.1193 32.7924 17.8871 33.869 19.0165C34.7424 19.9062 35.3843 20.9543 36.0668 22.0593C36.3674 22.5509 36.6803 23.0546 37.0174 23.5584C37.7934 24.7081 38.6546 25.7968 39.4874 26.8449C39.8571 27.3081 40.2349 27.7874 40.6006 28.2627C41.5268 29.4693 42.2053 30.4687 42.7293 31.4071C44.1959 34.0437 44.5493 36.4568 43.7774 38.5815C43.3224 39.8287 42.4734 41.0637 41.2465 42.2459C38.9146 44.4965 36.2862 46.1946 33.4303 47.2956C30.2981 48.5021 27.0806 49.144 24.1271 49.144C22.4046 49.144 20.7837 48.9246 19.309 48.494L19.244 48.4737C17.1721 47.8643 15.1856 46.8121 13.5037 45.4268C11.8828 44.0943 10.0709 42.4652 8.93338 40.5193C8.04775 38.9999 7.62932 37.1312 7.75525 35.2543C7.98275 31.8337 10.0709 28.4699 12.289 25.3418C13.5728 23.5381 15.0149 21.8318 16.579 20.2718L16.6115 20.2393C18.0781 18.7768 19.7396 17.1193 21.4824 16.1687C21.5028 16.1565 21.5353 16.1402 21.5759 16.124C22.2787 15.7787 23.1562 15.3481 23.1562 14.4096V13.5281C23.3106 13.2274 23.3349 12.874 23.2171 12.5531C23.1928 12.4799 23.1684 12.419 23.1481 12.3621C23.0343 12.0371 22.949 11.8177 22.6931 11.3993C22.6728 11.3668 22.6524 11.3384 22.6321 11.3099C21.3199 9.53056 20.1906 6.98337 19.5243 4.31837L19.5203 4.30212C19.5121 4.25743 19.504 4.21681 19.4999 4.18024C19.5568 4.17212 19.6259 4.16399 19.7112 4.16399C19.829 4.16399 19.959 4.17618 20.0849 4.20056L20.154 4.21274C20.5521 4.28993 21.0031 4.37524 21.4743 4.37524C22.2868 4.37524 22.9409 4.11524 23.4203 3.59931C23.6234 3.38806 23.7412 3.17274 23.8184 3.03056C23.8306 3.01024 23.8428 2.98587 23.8549 2.96556C23.9159 2.94524 24.0743 2.90462 24.4684 2.90462C25.0615 2.90462 25.6709 2.89243 26.2559 2.88024C26.8368 2.86399 27.4299 2.85181 27.9987 2.85181ZM27.9987 1.63306C26.8368 1.63306 25.6303 1.68181 24.4724 1.68181C23.9403 1.68181 23.3106 1.73056 22.9734 2.12056C22.7784 2.31556 22.7337 2.55931 22.5387 2.75431C22.2624 3.05899 21.8846 3.15243 21.4784 3.15243C21.0965 3.15243 20.6903 3.07118 20.3165 2.99806C20.1256 2.96149 19.9224 2.94118 19.7193 2.94118C19.0937 2.94118 18.4721 3.14024 18.2893 3.72931C18.2406 4.02181 18.2893 4.26556 18.3381 4.55806C18.9678 7.09712 20.1134 9.92868 21.6571 12.0249C21.9049 12.4352 21.9253 12.5612 22.0756 12.9674H21.9374V14.4056C21.9374 14.6249 21.064 15.0068 20.9015 15.0962C18.9881 16.1402 17.2534 17.879 15.7218 19.4065C14.1009 21.0193 12.6221 22.7702 11.2978 24.6349C9.11213 27.7102 6.7965 31.3259 6.54057 35.169C6.40244 37.2124 6.84932 39.3534 7.88525 41.1287C9.07557 43.1681 10.924 44.8743 12.7359 46.3652C14.5437 47.8521 16.6562 48.9774 18.9028 49.6396C18.9271 49.6478 18.9474 49.6518 18.9718 49.6599C20.6293 50.1434 22.3721 50.3587 24.1353 50.3587C27.4706 50.3587 30.8709 49.5909 33.8771 48.429C36.9728 47.2346 39.7149 45.4227 42.0996 43.1193C43.3103 41.9493 44.3543 40.5762 44.9312 38.9959C45.9509 36.1927 45.2074 33.3327 43.8018 30.8099C43.1599 29.6562 42.384 28.5634 41.5756 27.5152C40.3893 25.9715 39.1218 24.4887 38.0371 22.8759C36.9524 21.2671 36.1318 19.5731 34.7465 18.1634C33.4993 16.8552 31.9231 15.9737 30.2615 15.5918C29.6359 15.3684 29.059 14.9906 28.6446 14.5884H28.8437V12.9674H28.5349C28.539 12.5612 28.5837 12.4312 28.6771 12.1996C29.3068 10.3918 29.8837 8.60024 30.5134 6.79243C30.6596 6.35368 30.8018 5.94337 31.0943 5.60212C31.4315 5.16337 31.9637 4.85868 32.3496 4.41993C32.7356 3.98118 32.8818 3.24181 32.3984 2.85181C32.1506 2.80712 31.8987 2.78681 31.6428 2.78681C31.0578 2.78681 30.4728 2.90462 29.9324 3.14431C30.1721 2.70556 29.8837 2.11649 29.449 1.87274C29.0143 1.63306 28.4821 1.63306 27.9987 1.63306Z" fill="#424242"/>
<path opacity="0.2" d="M26.4755 14.2755C25.2405 12.748 26.1302 12.5652 25.6874 11.2083C25.2974 10.0099 24.5296 8.83585 23.3718 7.7146C23.3433 7.84054 23.518 8.37272 23.5343 8.49866C23.8268 9.7296 23.3068 10.9321 23.8349 12.1793C24.2615 13.1827 25.2283 13.6824 26.3252 14.6412C26.3821 14.5193 26.5893 14.4177 26.4755 14.2755Z" fill="#212121"/>
<path d="M28.9493 14.9093H21.7627C21.1615 14.9093 20.6699 14.4177 20.6699 13.8164C20.6699 13.2152 21.1615 12.7236 21.7627 12.7236H28.9493C29.5505 12.7236 30.0421 13.2152 30.0421 13.8164C30.0421 14.4177 29.5505 14.9093 28.9493 14.9093Z" fill="#6D4C41"/>
<path opacity="0.2" d="M28.9493 13.1299C29.3271 13.1299 29.6359 13.4386 29.6359 13.8164C29.6359 14.1943 29.3271 14.503 28.9493 14.503H21.7627C21.3849 14.503 21.0762 14.1943 21.0762 13.8164C21.0762 13.4386 21.3849 13.1299 21.7627 13.1299H28.9493ZM28.9493 12.7236H21.7627C21.1615 12.7236 20.6699 13.2152 20.6699 13.8164C20.6699 14.4177 21.1615 14.9093 21.7627 14.9093H28.9493C29.5505 14.9093 30.0421 14.4177 30.0421 13.8164C30.0421 13.2152 29.5505 12.7236 28.9493 12.7236Z" fill="#424242"/>
<path d="M31.4399 37.6879C31.4399 36.7617 31.2612 35.9573 30.9118 35.2667C30.5584 34.5761 30.0099 33.9748 29.2624 33.4548C28.588 32.9876 27.674 32.5529 26.5243 32.1548L26.6015 25.5411C27.1499 25.7076 27.609 26.0245 27.9868 26.4917C28.4865 27.1132 28.7749 27.8323 28.844 28.8276C28.8643 29.112 29.0877 29.2501 29.3762 29.2501H30.7249C31.0255 29.2501 31.2734 29.0917 31.2571 28.7951C31.1799 27.2636 30.8712 26.0814 30.1399 25.1592C29.3234 24.1314 28.0315 23.5626 26.8127 23.3636V21.0926C26.8127 20.7554 26.3537 20.3167 26.0165 20.3167H25.2812C24.948 20.3126 24.7815 20.7554 24.7815 21.0886V22.7542L24.7205 23.3473C23.2662 23.522 22.0962 24.0664 21.2674 24.9804C20.4346 25.8945 20.004 27.0686 20.004 28.4986C20.004 29.9042 20.4224 31.062 21.2715 31.972C21.9987 32.752 23.0915 33.402 24.554 33.9301L24.4768 40.7145C23.7171 40.5886 23.1037 40.2839 22.6324 39.8045C22.0799 39.2398 21.7671 38.4436 21.694 37.4604C21.6737 37.1882 21.438 36.9648 21.1659 36.9648H19.8049C19.5043 36.9648 19.2565 37.2329 19.2727 37.5336C19.3621 39.0042 19.7765 40.1986 20.5971 41.0964C21.5193 42.1039 22.7462 42.6889 24.3712 42.8392V44.7323C24.3712 45.0695 24.7205 45.5001 25.0577 45.5001H25.7809C26.118 45.5001 26.4065 45.0695 26.4065 44.7323V43.3957V42.8432C27.999 42.6767 29.234 42.1445 30.1196 41.2467C31.0012 40.3489 31.4399 39.1626 31.4399 37.6879ZM23.2824 30.5867C22.7015 30.0586 22.413 29.3476 22.413 28.4579C22.413 27.4951 22.6893 26.7476 23.2377 26.2114C23.5993 25.8579 24.0705 25.6223 24.6474 25.5004L24.5784 31.4114C24.034 31.1514 23.5993 30.8751 23.2824 30.5867ZM28.0396 39.9629C27.609 40.3245 27.0687 40.5682 26.4227 40.6901L26.4959 34.6411C27.2312 34.9661 27.7959 35.3154 28.1777 35.6851C28.7384 36.2336 29.0227 36.912 29.0227 37.7123C29.0187 38.6629 28.6937 39.4145 28.0396 39.9629Z" fill="url(#paint1_linear_195_2504)"/>
<defs>
<linearGradient id="paint0_linear_195_2504" x1="25.9544" y1="50.3627" x2="25.9544" y2="1.63241" gradientUnits="userSpaceOnUse">
<stop stop-color="#FFB74D"/>
<stop offset="1" stop-color="#FFE0B2"/>
</linearGradient>
<linearGradient id="paint1_linear_195_2504" x1="25.3571" y1="45.5001" x2="25.3571" y2="20.3126" gradientUnits="userSpaceOnUse">
<stop offset="0.0023318" stop-color="#5D4037"/>
<stop offset="1" stop-color="#795548"/>
</linearGradient>
</defs>
</svg>
