<svg width="46" height="46" viewBox="0 0 46 46" fill="none" xmlns="http://www.w3.org/2000/svg">
<path d="M24.0864 18.1404C24.0864 18.1404 28.8236 4.71075 33.4667 1.6416" stroke="#979797" stroke-linecap="round"/>
<path d="M21.7949 18.1404C21.7949 18.1404 17.0577 4.71075 12.4147 1.6416" stroke="#979797" stroke-linecap="round"/>
<path d="M34.2982 2.46258C35.1039 2.46258 35.7571 1.91131 35.7571 1.23129C35.7571 0.551266 35.1039 0 34.2982 0C33.4925 0 32.8394 0.551266 32.8394 1.23129C32.8394 1.91131 33.4925 2.46258 34.2982 2.46258Z" fill="#D8D8D8"/>
<path d="M11.9291 2.46258C12.7348 2.46258 13.3879 1.91131 13.3879 1.23129C13.3879 0.551266 12.7348 0 11.9291 0C11.1234 0 10.4702 0.551266 10.4702 1.23129C10.4702 1.91131 11.1234 2.46258 11.9291 2.46258Z" fill="#D8D8D8"/>
<path fill-rule="evenodd" clip-rule="evenodd" d="M23.1138 22.9523C23.1138 22.9523 34.6169 10.4144 41.3009 10.6752C47.9849 10.9359 46.0978 28.3923 44.3324 30.2441C42.567 32.0958 35.2828 34.1782 35.2828 34.1782C35.2828 34.1782 40.842 36.0722 40.842 40.1598C40.842 44.2474 35.9007 48.8609 29.9743 43.7329C24.0479 38.605 23.6459 33.5313 23.6459 33.5313" fill="#FF78C7"/>
<path fill-rule="evenodd" clip-rule="evenodd" d="M22.8862 22.9523C22.8862 22.9523 11.3831 10.4144 4.69913 10.6752C-1.98489 10.9359 -0.0977898 28.3923 1.66759 30.2441C3.43298 32.0958 10.7172 34.1782 10.7172 34.1782C10.7172 34.1782 5.15802 36.0722 5.15802 40.1598C5.15802 44.2474 10.0993 48.8609 16.0257 43.7329C21.9521 38.605 22.3541 33.5313 22.3541 33.5313" fill="#FF78C7"/>
<path d="M23.1136 20.5215C24.1879 20.5215 25.0587 19.7864 25.0587 18.8798C25.0587 17.9731 24.1879 17.238 23.1136 17.238C22.0393 17.238 21.1685 17.9731 21.1685 18.8798C21.1685 19.7864 22.0393 20.5215 23.1136 20.5215Z" fill="#595959"/>
<path d="M23.1136 37.7596C24.1879 37.7596 25.0587 33.717 25.0587 28.7301C25.0587 23.7433 24.1879 19.7007 23.1136 19.7007C22.0393 19.7007 21.1685 23.7433 21.1685 28.7301C21.1685 33.717 22.0393 37.7596 23.1136 37.7596Z" fill="#595959"/>
</svg>
