<svg width="46" height="46" viewBox="0 0 46 46" fill="none" xmlns="http://www.w3.org/2000/svg">
<path d="M46 23C46 35.7267 35.7267 46 23 46C10.2733 46 0 35.7267 0 23C0 10.2733 10.2733 0 23 0C35.7267 0 46 10.2733 46 23Z" fill="#FFDD67"/>
<path d="M36.0335 27.6001C36.0335 26.9867 35.6501 26.2201 34.6535 25.9901C31.9701 25.4534 28.0601 24.9934 23.0001 24.9934C17.9401 24.9934 14.0301 25.5301 11.3468 25.9901C10.3501 26.2201 9.9668 26.9867 9.9668 27.6001C9.9668 33.1967 14.2601 38.7934 23.0001 38.7934C31.7401 38.7934 36.0335 33.1967 36.0335 27.6001Z" fill="#664E27"/>
<path d="M20.3169 19.0899C18.8602 15.1799 16.7135 13.1865 14.5669 13.1865C12.4202 13.1865 10.2735 15.1799 8.81687 19.0899C8.66354 19.4732 9.43021 20.1632 9.81354 19.7799C11.1935 18.3232 12.8802 17.7099 14.5669 17.7099C16.2535 17.7099 17.9402 18.3232 19.3202 19.7799C19.7802 20.1632 20.4702 19.4732 20.3169 19.0899Z" fill="#664E27"/>
<path d="M37.1069 19.0899C35.6502 15.1799 33.5036 13.1865 31.3569 13.1865C29.2102 13.1865 27.0636 15.1799 25.6069 19.0899C25.4536 19.4732 26.2202 20.1632 26.6036 19.7799C27.9836 18.3232 29.6702 17.7099 31.3569 17.7099C33.1202 17.7099 34.7302 18.3232 36.1102 19.7799C36.4936 20.1632 37.2602 19.4732 37.1069 19.0899Z" fill="#664E27"/>
<path d="M32.7367 27.8301C31.05 27.5235 27.5233 27.0635 23 27.0635C18.4767 27.0635 14.95 27.5235 13.2633 27.8301C12.2667 27.9835 12.19 28.3668 12.2667 28.9801C12.3433 29.2868 12.3433 29.7468 12.4967 30.2068C12.5733 30.6668 12.7267 30.8968 13.4934 30.8201C14.95 30.6668 31.1267 30.6668 32.5833 30.8201C33.35 30.8968 33.4267 30.6668 33.58 30.2068C33.6567 29.7468 33.7333 29.3635 33.81 28.9801C33.81 28.3668 33.7334 27.9835 32.7367 27.8301Z" fill="white"/>
<path d="M46 23C46 35.7267 35.7267 46 23 46C10.2733 46 0 35.7267 0 23C0 10.2733 10.2733 0 23 0C35.7267 0 46 10.2733 46 23Z" fill="#FFDD67"/>
<path d="M36.0335 27.6001C36.0335 26.9867 35.6501 26.2201 34.6535 25.9901C31.9701 25.4534 28.0601 24.9934 23.0001 24.9934C17.9401 24.9934 14.0301 25.5301 11.3468 25.9901C10.3501 26.2201 9.9668 26.9867 9.9668 27.6001C9.9668 33.1967 14.2601 38.7934 23.0001 38.7934C31.7401 38.7934 36.0335 33.1967 36.0335 27.6001Z" fill="#664E27"/>
<path d="M20.3169 19.0899C18.8602 15.1799 16.7135 13.1865 14.5669 13.1865C12.4202 13.1865 10.2735 15.1799 8.81687 19.0899C8.66354 19.4732 9.43021 20.1632 9.81354 19.7799C11.1935 18.3232 12.8802 17.7099 14.5669 17.7099C16.2535 17.7099 17.9402 18.3232 19.3202 19.7799C19.7802 20.1632 20.4702 19.4732 20.3169 19.0899Z" fill="#664E27"/>
<path d="M37.1069 19.0899C35.6502 15.1799 33.5036 13.1865 31.3569 13.1865C29.2102 13.1865 27.0636 15.1799 25.6069 19.0899C25.4536 19.4732 26.2202 20.1632 26.6036 19.7799C27.9836 18.3232 29.6702 17.7099 31.3569 17.7099C33.1202 17.7099 34.7302 18.3232 36.1102 19.7799C36.4936 20.1632 37.2602 19.4732 37.1069 19.0899Z" fill="#664E27"/>
<path d="M32.7367 27.8301C31.05 27.5235 27.5233 27.0635 23 27.0635C18.4767 27.0635 14.95 27.5235 13.2633 27.8301C12.2667 27.9835 12.19 28.3668 12.2667 28.9801C12.3433 29.2868 12.3433 29.7468 12.4967 30.2068C12.5733 30.6668 12.7267 30.8201 13.4934 30.8201H32.5833C33.35 30.8201 33.4267 30.6668 33.58 30.2068C33.6567 29.7468 33.7333 29.3635 33.81 28.9801C33.81 28.3668 33.7334 27.9835 32.7367 27.8301Z" fill="white"/>
</svg>
